<?xml version="1.0" encoding="utf-8"?>
<!-- Generator: Adobe Illustrator 26.2.1, SVG Export Plug-In . SVG Version: 6.00 Build 0)  -->
<svg version="1.1" id="图层_1" xmlns="http://www.w3.org/2000/svg" xmlns:xlink="http://www.w3.org/1999/xlink" x="0px" y="0px"
	 viewBox="0 0 16 16" style="enable-background:new 0 0 16 16;" xml:space="preserve">
<style type="text/css">
	.st0{filter:url(#Adobe_OpacityMaskFilter);}
	.st1{fill-rule:evenodd;clip-rule:evenodd;fill:#FFFFFF;}
	.st2{mask:url(#mask-2_00000134207924251442430660000010974161251580586381_);fill-rule:evenodd;clip-rule:evenodd;}
</style>
<defs>
	<filter id="Adobe_OpacityMaskFilter" filterUnits="userSpaceOnUse" x="0" y="0" width="16" height="15.3">
		<feColorMatrix  type="matrix" values="1 0 0 0 0  0 1 0 0 0  0 0 1 0 0  0 0 0 1 0"/>
	</filter>
</defs>
<mask maskUnits="userSpaceOnUse" x="0" y="0" width="16" height="15.3" id="mask-2_00000134207924251442430660000010974161251580586381_">
	<g class="st0">
		<rect id="path-1_00000069374413066667657360000011849296136811943344_" class="st1" width="16" height="16"/>
	</g>
</mask>
<path id="形状结合" class="st2" d="M14.8,5.8C15.5,5.8,16,6.3,16,7v7.1c0,0.7-0.5,1.2-1.2,1.2H7.7c-0.7,0-1.2-0.5-1.2-1.2V11
	H1.2C0.5,11,0,10.4,0,9.8V1.2C0,0.5,0.5,0,1.2,0h11.9c0.7,0,1.2,0.5,1.2,1.2v4.6H14.8z M10.9,6.3c-0.3,0.1-0.5,0.3-0.6,0.5l-3.2,7.3
	c-0.1,0.3,0,0.6,0.3,0.7c0.3,0.1,0.6,0,0.7-0.3l1.2-2.7h4l1.1,2.6l0,0c0.1,0.2,0.3,0.3,0.5,0.3c0.1,0,0.1,0,0.2,0
	c0.3-0.1,0.4-0.4,0.3-0.7l-3.1-7.2c-0.1-0.2-0.3-0.4-0.5-0.5C11.5,6.2,11.2,6.2,10.9,6.3z M11.3,7.3l1.5,3.6H9.7L11.3,7.3z M11,2.3
	l1.2,1.3v1.7h-5C6.5,5.3,6,5.9,6,6.5v1.8H2.5V7.1l2.5-3.5l2.4,1L11,2.3z M3.3,2.1c0.5,0,0.9,0.4,0.9,0.9S3.8,4,3.3,4S2.4,3.5,2.4,3
	S2.8,2.1,3.3,2.1z M13.1,1.5c0-0.2-0.1-0.3-0.3-0.3H1.5c-0.2,0-0.3,0.1-0.3,0.3v7.9c0,0.2,0.1,0.3,0.3,0.3h5V7
	c0-0.7,0.5-1.2,1.2-1.2h5.4V1.5z"/>
</svg>
