<?xml version="1.0" encoding="utf-8"?>
<!-- Generator: Adobe Illustrator 26.2.1, SVG Export Plug-In . SVG Version: 6.00 Build 0)  -->
<svg version="1.1" id="图层_1" xmlns="http://www.w3.org/2000/svg" xmlns:xlink="http://www.w3.org/1999/xlink" x="0px" y="0px"
	 viewBox="0 0 16 16" style="enable-background:new 0 0 16 16;" xml:space="preserve">
<style type="text/css">
	.st0{fill-rule:evenodd;clip-rule:evenodd; }
</style>
<path id="形状结合" class="st0" d="M10.7,8c0.1,0,0.3-0.1,0.4,0.1c0.3,0.3,0.6,0.4,0.9,0.4c0.4,0,0.7-0.1,0.9-0.4
	C13,8,13.2,8,13.3,8c0.5,0.2,0.9,0.4,1.3,0.8c0.1,0.1,0.2,0.3,0.1,0.4c-0.1,0.3-0.1,0.7,0.1,1c0.2,0.3,0.4,0.5,0.8,0.6l0,0h0
	c0.2,0,0.3,0.2,0.3,0.3C16,11.5,16,11.7,16,12c0,0.3,0,0.5-0.1,0.8l0,0v0c-0.1,0.1-0.1,0.2-0.2,0.3c0,0,0,0,0,0
	c-0.3,0.1-0.6,0.3-0.8,0.6c-0.2,0.3-0.2,0.7-0.1,1c0.1,0.2,0,0.4-0.1,0.4c-0.4,0.3-0.8,0.6-1.3,0.8c0,0-0.1,0-0.1,0
	c-0.1,0-0.2-0.1-0.3-0.1c-0.3-0.3-0.6-0.4-0.9-0.4c-0.4,0-0.7,0.2-0.9,0.4C11,15.9,10.9,16,10.8,16l0,0h-0.1c0,0-0.1,0-0.1,0
	c-0.5-0.2-0.9-0.4-1.3-0.8c-0.1-0.1-0.2-0.3-0.1-0.4c0.1-0.3,0.1-0.7-0.1-1c-0.2-0.3-0.4-0.5-0.8-0.6l0,0h0c-0.2,0-0.3-0.2-0.3-0.3
	C8,12.6,8,12.3,8,12c0-0.3,0-0.5,0.1-0.8l0,0v0c0.1-0.1,0.1-0.2,0.2-0.3c0,0,0,0,0,0c0.3-0.1,0.6-0.3,0.8-0.6c0.2-0.3,0.2-0.7,0.1-1
	c-0.1-0.2,0-0.3,0.1-0.4C9.8,8.5,10.2,8.2,10.7,8z M11.6,0C12.9,0,14,1.1,14,2.4l0,0v4.4c0,0.2-0.1,0.3-0.2,0.4
	c-0.1,0.1-0.3,0.2-0.4,0.2c-0.2,0-0.3-0.1-0.4-0.2c-0.1-0.1-0.2-0.3-0.2-0.4l0,0V5.9L3.9,8.3l1.2,4.4c0,0,0,0.1,0,0.1l0,0h1.5
	c0.3,0,0.6,0.3,0.6,0.6c0,0.3-0.3,0.6-0.6,0.6l0,0H2.4C1.1,14,0,12.9,0,11.6l0,0V2.4C0,1.1,1.1,0,2.4,0l0,0H11.6z M12,10.6
	c-0.4,0-0.7,0.1-0.9,0.4c-0.3,0.3-0.4,0.6-0.4,1c0,0.4,0.1,0.7,0.4,1c0.3,0.3,0.6,0.4,0.9,0.4l0,0c0.4,0,0.7-0.1,0.9-0.4
	c0.3-0.3,0.4-0.6,0.4-1c0-0.4-0.1-0.7-0.4-1C12.7,10.8,12.3,10.6,12,10.6z M3,8.5L1.2,9v2.6c0,0.6,0.5,1.1,1.1,1.1l0,0h1.8L3,8.5z
	 M6.6,1.2H2.4c-0.6,0-1.1,0.5-1.1,1.1l0,0V8l6.7-1.8L6.6,1.4C6.6,1.3,6.6,1.3,6.6,1.2L6.6,1.2z M11.6,1.2H7.5L8.8,6L12.7,5
	c0,0,0,0,0.1,0l0,0V2.4C12.8,1.7,12.3,1.2,11.6,1.2L11.6,1.2z"/>
</svg>
