<?xml version="1.0" encoding="UTF-8"?>
<svg width="15px" height="13px" viewBox="0 0 15 13" version="1.1" xmlns="http://www.w3.org/2000/svg" xmlns:xlink="http://www.w3.org/1999/xlink">
    <title>nav_retract</title>
    <g id="控件" stroke="none" stroke-width="1" fill="none" fill-rule="evenodd">
        <g id="导航整合/侧边导航打开/顶部导航/白色底/帮助和消息" transform="translate(-25.000000, -22.000000)" fill="#0C1014">
            <g id="编组" transform="translate(24.000000, 20.000000)">
                <g id="nav_retract" transform="translate(8.000000, 8.000000) scale(-1, 1) translate(-8.000000, -8.000000) ">
                    <path d="M7.35,12.7038357 C7.70898509,12.7038357 8,12.9948506 8,13.3538357 C8,13.7128208 7.70898509,14.0038357 7.35,14.0038357 L0.65,14.0038357 C0.291014913,14.0038357 4.39629938e-17,13.7128208 0,13.3538357 C-4.39629938e-17,12.9948506 0.291014913,12.7038357 0.65,12.7038357 L7.35,12.7038357 Z M14.4680273,3.55542158 C14.697254,3.78310568 14.7213022,4.13923356 14.5393954,4.39385593 L14.4711308,4.47465516 L10.956,8.013 L14.4714781,11.558875 C14.6989883,11.7882743 14.720361,12.1445727 14.536547,12.3978217 L14.4676774,12.4781059 C14.2382781,12.7056161 13.8819796,12.7269888 13.6287307,12.5431748 L13.5484465,12.4743053 L9.5783783,8.47127156 C9.35207546,8.2430896 9.32957077,7.88906244 9.51077828,7.63585052 L9.57872557,7.55549136 L13.5487937,3.55852508 C13.8017761,3.30382873 14.213331,3.30243925 14.4680273,3.55542158 Z M7.35,7.35191784 C7.70898509,7.35191784 8,7.64293275 8,8.00191784 C8,8.36090293 7.70898509,8.65191784 7.35,8.65191784 L0.65,8.65191784 C0.291014913,8.65191784 4.39629938e-17,8.36090293 0,8.00191784 C-4.39629938e-17,7.64293275 0.291014913,7.35191784 0.65,7.35191784 L7.35,7.35191784 Z M7.35,2 C7.70898509,2 8,2.29101491 8,2.65 C8,3.00898509 7.70898509,3.3 7.35,3.3 L0.65,3.3 C0.291014913,3.3 4.39629938e-17,3.00898509 0,2.65 C-4.39629938e-17,2.29101491 0.291014913,2 0.65,2 L7.35,2 Z" id="形状结合"></path>
                </g>
            </g>
        </g>
    </g>
</svg>