<?xml version="1.0" encoding="UTF-8"?>
<svg width="20px" height="18px" viewBox="0 0 20 18" version="1.1" xmlns="http://www.w3.org/2000/svg" xmlns:xlink="http://www.w3.org/1999/xlink">
    <title>ico</title>
    <g id="4数据分析" stroke="none" stroke-width="1" fill="none" fill-rule="evenodd">
        <g id="4-1-1统计报表-全屏" transform="translate(-288.000000, -89.000000)" fill-rule="nonzero">
            <g transform="translate(256.000000, 0.000000)" id="main">
                <g transform="translate(24.000000, 80.000000)">
                    <g id="ico" transform="translate(8.000000, 9.000000)">
                        <path d="M10.3770355,4.03799605 C11.2054619,4.03689065 11.8779314,4.70756572 11.8790395,5.53599211 C11.8800798,6.31568753 11.2860483,6.95723428 10.5254942,7.03093517 L10.3810434,7.03799605 L0.711874494,7.05091395 C-0.116551891,7.05201934 -0.789021376,6.38134428 -0.790129507,5.55291789 C-0.791169799,4.77322247 -0.19713828,4.13167572 0.563415842,4.05797483 L0.70786655,4.05091526 L10.3770355,4.03799605 Z" id="直线备份-2" fill="#FF445E" transform="translate(5.544455, 5.544455) scale(1, -1) rotate(45.000000) translate(-5.544455, -5.544455) "></path>
                        <path d="M18.1261445,7.45845532 C18.9545716,7.45845532 19.6261445,8.1300282 19.6261445,8.95845532 C19.6261445,9.73815144 19.0312564,10.378904 18.2706045,10.4515887 L18.1261445,10.4584553 L5.75032013,10.4584552 L10.0268328,14.7243787 C10.6134003,15.309383 10.6146692,16.2591297 10.0296668,16.8456991 C9.4790745,17.3977626 8.60538873,17.431361 8.01548135,16.9456824 L7.90834648,16.8485331 L1.06207721,10.0205325 C0.475509667,9.43552825 0.474240822,8.48578163 1.05924317,7.89921215 C1.35289241,7.60477827 1.73844378,7.45781894 2.12383259,7.45845728 L18.1261445,7.45845532 Z" id="形状结合" fill="#345EF0"></path>
                    </g>
                </g>
            </g>
        </g>
    </g>
</svg>