<?xml version="1.0" encoding="utf-8"?>
<!-- Generator: Adobe Illustrator 26.2.1, SVG Export Plug-In . SVG Version: 6.00 Build 0)  -->
<svg version="1.1" id="图层_1" xmlns="http://www.w3.org/2000/svg" xmlns:xlink="http://www.w3.org/1999/xlink" x="0px" y="0px"
	 width="16px" height="16px"	 viewBox="0 0 16 16" style="enable-background:new 0 0 16 16;" xml:space="preserve">
<style type="text/css">
	.st0{filter:url(#Adobe_OpacityMaskFilter);}
	.st1{fill-rule:evenodd;clip-rule:evenodd;fill:#FFFFFF;}
	.st2{mask:url(#mask-2_00000139254637842784680270000012227838877202548136_);fill-rule:evenodd;clip-rule:evenodd;}
</style>
<defs>
	<filter id="Adobe_OpacityMaskFilter" filterUnits="userSpaceOnUse" x="0" y="0" width="16" height="16">
		<feColorMatrix  type="matrix" values="1 0 0 0 0  0 1 0 0 0  0 0 1 0 0  0 0 0 1 0"/>
	</filter>
</defs>
<mask maskUnits="userSpaceOnUse" x="0" y="0" width="16" height="16" id="mask-2_00000139254637842784680270000012227838877202548136_">
	<g class="st0">
		<rect id="path-1_00000096757829507361982280000006841094549372236948_" class="st1" width="16" height="16"/>
	</g>
</mask>
<path id="形状结合" class="st2" d="M0.9,16c-0.3,0-0.5-0.1-0.7-0.3C0.1,15.6,0,15.4,0,15.1V0.9C0,0.3,0.3,0,1,0s1,0.3,1,0.9V14
	h13.1c0.6,0,0.9,0.3,0.9,1c0,0.7-0.3,1-0.9,1H0.9z M13.5,0.6l1.9,1.9c0.7,0.7,0.7,1.7,0.2,2.4l-0.1,0.1L8.5,12
	c-0.1,0.1-0.3,0.2-0.4,0.2l-4,0.8c-0.6,0.1-1.2-0.5-1.1-1.1l0.8-4c0-0.2,0.1-0.3,0.3-0.4l7-7l0.1-0.1C11.8-0.2,12.9-0.1,13.5,0.6z
	 M12.2,2L6,8.2L7.8,10L14,3.8h0L12.2,2z"/>
</svg>
