<?xml version="1.0" encoding="utf-8"?>
<!-- Generator: Adobe Illustrator 26.2.1, SVG Export Plug-In . SVG Version: 6.00 Build 0)  -->
<svg version="1.1" id="图层_1" xmlns="http://www.w3.org/2000/svg" xmlns:xlink="http://www.w3.org/1999/xlink" x="0px" y="0px"
	 viewBox="0 0 16 16" style="enable-background:new 0 0 16 16;" xml:space="preserve">
<style type="text/css">
	.st0{fill:none;}
	.st1{filter:url(#Adobe_OpacityMaskFilter);}
	.st2{fill-rule:evenodd;clip-rule:evenodd;fill:#FFFFFF;}
	.st3{mask:url(#mask-2_00000052810599052813038620000010891892631994072213_);fill-rule:evenodd;clip-rule:evenodd;}
</style>
<g id="矩形">
	<rect id="path-1_00000180347438078301069670000006337698058501421445_" class="st0" width="16" height="16"/>
</g>
<defs>
	<filter id="Adobe_OpacityMaskFilter" filterUnits="userSpaceOnUse" x="0" y="0" width="16" height="16">
		<feColorMatrix  type="matrix" values="1 0 0 0 0  0 1 0 0 0  0 0 1 0 0  0 0 0 1 0"/>
	</filter>
</defs>
<mask maskUnits="userSpaceOnUse" x="0" y="0" width="16" height="16" id="mask-2_00000052810599052813038620000010891892631994072213_">
	<g class="st1">
		<rect id="path-1_00000134207288432514735340000013655168690105709696_" class="st2" width="16" height="16"/>
	</g>
</mask>
<path id="Fill-1" class="st3" d="M8,0C3.6,0,0,3.6,0,8c0,4.4,3.6,8,8,8c0.7,0,1.3-0.6,1.3-1.3c0-0.4-0.1-0.6-0.4-0.9
	c-0.2-0.3-0.4-0.5-0.4-0.9c0-0.7,0.6-1.3,1.3-1.3h1.6c2.5,0,4.4-2,4.4-4.4C16,3.2,12.4,0,8,0z M3.1,8C2.4,8,1.8,7.4,1.8,6.7
	c0-0.7,0.6-1.3,1.3-1.3S4.4,6,4.4,6.7C4.4,7.4,3.8,8,3.1,8z M5.8,4.4c-0.7,0-1.3-0.6-1.3-1.3s0.6-1.3,1.3-1.3c0.7,0,1.3,0.6,1.3,1.3
	S6.5,4.4,5.8,4.4z M10.2,4.4c-0.7,0-1.3-0.6-1.3-1.3s0.6-1.3,1.3-1.3c0.7,0,1.3,0.6,1.3,1.3S10.9,4.4,10.2,4.4z M12.9,8
	c-0.7,0-1.3-0.6-1.3-1.3c0-0.7,0.6-1.3,1.3-1.3c0.7,0,1.3,0.6,1.3,1.3C14.2,7.4,13.6,8,12.9,8z"/>
</svg>
