<?xml version="1.0" encoding="utf-8"?>
<!-- Generator: Adobe Illustrator 26.2.1, SVG Export Plug-In . SVG Version: 6.00 Build 0)  -->
<svg version="1.1" id="图层_1" xmlns="http://www.w3.org/2000/svg" xmlns:xlink="http://www.w3.org/1999/xlink" x="0px" y="0px"
	 viewBox="0 0 81.1 93.7" style="enable-background:new 0 0 81.1 93.7;" xml:space="preserve">
<style type="text/css">
	.st0{fill:url(#SVGID_1_);}
	.st1{fill:url(#SVGID_00000009566318686779022060000005381337242787561089_);}
</style>
<linearGradient id="SVGID_1_" gradientUnits="userSpaceOnUse" x1="-126.8005" y1="75.477" x2="-79.8005" y2="79.147" gradientTransform="matrix(-1 0 0 -1 -65.45 91.83)">
	<stop  offset="0" style="stop-color:#5CC3E4"/>
	<stop  offset="1" style="stop-color:#5CC3E4;stop-opacity:0"/>
</linearGradient>
<path class="st0" d="M0,23.4l6.1,3.5C17,7.9,41.4,1.3,60.4,12.3c6.1,3.5,11.2,8.6,14.7,14.7l6.1-3.5C68.2,1,39.6-6.7,17.2,6.3
	C10.1,10.4,4.2,16.3,0,23.4L0,23.4z"/>
<linearGradient id="SVGID_00000088838137437545897450000002911594089288371328_" gradientUnits="userSpaceOnUse" x1="29.1995" y1="117.477" x2="76.1995" y2="121.147" gradientTransform="matrix(1 0 0 1 -9.45 -40.17)">
	<stop  offset="0" style="stop-color:#5CC3E4"/>
	<stop  offset="1" style="stop-color:#5CC3E4;stop-opacity:0"/>
</linearGradient>
<path style="fill:url(#SVGID_00000088838137437545897450000002911594089288371328_);" d="M81.1,70.2L75,66.7
	c-11,19.1-35.3,25.6-54.3,14.7C14.6,77.9,9.5,72.8,6,66.7L0,70.2c12.9,22.4,41.5,30.1,63.9,17.2C71,83.3,76.9,77.4,81.1,70.2
	L81.1,70.2z"/>
</svg>
