<?xml version="1.0" encoding="UTF-8"?>
<svg width="16px" height="16px" viewBox="0 0 16 16" version="1.1" xmlns="http://www.w3.org/2000/svg" xmlns:xlink="http://www.w3.org/1999/xlink">
    <title>形状结合</title>
    <g id="页面-1" stroke="none" stroke-width="1" fill="none" fill-rule="evenodd">
        <g id="灯杆云数据展示中心" transform="translate(-363.000000, -182.000000)" fill="#33AEE6" fill-rule="nonzero">
            <g id="图表-左" transform="translate(0.000000, 72.000000)">
                <g id="编组-29" transform="translate(30.000000, 32.000000)">
                    <g id="编组-6" transform="translate(317.000000, 61.000000)">
                        <g id="编组-11" transform="translate(0.000000, 1.000000)">
                            <path d="M20.6857703,16 L20.685,17.161 L21.2047923,17.1613536 L21.5455756,18.3114972 L20.685,18.311 L20.685,19.076 L21.2047923,19.0760177 L21.5455756,20.2261613 L20.685,20.226 L20.685,21.147 L21.324739,21.1476214 L21.6655223,22.2551671 L25.4589785,22.2551671 L25.8423597,21.1476214 L26.523,21.147 L26.523,20.226 L25.5733203,20.2261613 L25.9567015,19.0760177 L26.523,19.076 L26.523,18.311 L25.5733203,18.3114972 L25.9567015,17.1613536 L26.523,17.161 L26.5239263,16 L27.6740699,16 L27.674,17.161 L28.3847825,17.1613536 L28.7255658,18.3114972 L27.674,18.311 L27.674,19.076 L28.3847825,19.0760177 L28.7255658,20.2261613 L27.674,20.226 L27.674,21.147 L28.2704407,21.1476214 L28.611224,22.2551671 L29.2075948,22.2551671 C29.8039655,22.2551671 30.2725426,22.7237441 30.2725426,23.3201149 L30.2725426,23.3201149 L30.2725426,30.5530909 L31.0819029,30.5530909 L31.0819029,32 L16,32 L16,30.5530909 L16.9371541,30.5530909 L16.9371541,30.5530909 L16.9371541,23.3201149 C16.9371541,22.7237441 17.4057311,22.2551671 18.0021019,22.2551671 L18.0021019,22.2551671 L18.5132768,22.2551671 L18.8540601,21.1476214 L19.535,21.147 L19.535,20.226 L18.3933301,20.2261613 L18.7341134,19.0760177 L19.535,19.076 L19.535,18.311 L18.3933301,18.3114972 L18.7341134,17.1613536 L19.535,17.161 L19.5356267,16 L20.6857703,16 Z M23.593,23.531 L18.4266611,23.5316845 C18.2988673,23.5316845 18.2136715,23.6168804 18.2136715,23.7446741 L18.2136715,23.7446741 L18.2136715,30.5530909 L22.665,30.553 L22.9988925,27.9068728 L20.0620903,27.9068728 L23.593,23.531 Z M28.7830356,23.5316845 L24.273,23.531 L23.882131,26.2659706 L26.9291719,26.3189029 L23.498,30.553 L28.9960251,30.5530909 L28.9960251,30.5530909 L28.9960251,23.7446741 C28.9960251,23.6168804 28.9108293,23.5316845 28.7830356,23.5316845 L28.7830356,23.5316845 Z" id="形状结合"></path>
                        </g>
                    </g>
                </g>
            </g>
        </g>
    </g>
</svg>