<?xml version="1.0" encoding="UTF-8"?>
<svg width="24px" height="24px" viewBox="0 0 24 24" version="1.1" xmlns="http://www.w3.org/2000/svg" xmlns:xlink="http://www.w3.org/1999/xlink">
    <title>切片</title>
    <g id="页面-1" stroke="none" stroke-width="1" fill="none" fill-rule="evenodd">
        <g id="9-2-5告警-过压告警" transform="translate(-712.000000, -782.000000)" fill="#345EF0">
            <g id="9-2-4告警-过压告警" transform="translate(688.000000, 140.000000)">
                <g id="编组-18备份-2" transform="translate(0.000000, 570.000000)">
                    <g id="icon" transform="translate(24.000000, 72.000000)">
                        <path d="M12,21.3333333 C17.1546577,21.3333333 21.3333333,17.1546577 21.3333333,12 C21.3333333,6.84534234 17.1546577,2.66666667 12,2.66666667 C6.84534234,2.66666667 2.66666667,6.84534234 2.66666667,12 C2.66666667,17.1546577 6.84534234,21.3333333 12,21.3333333 Z M10.6105972,15.4822346 L7.65811626,12.5297537 C7.51423889,12.3858763 7.51423889,12.152605 7.65811626,12.0087276 L8.28334752,11.3834964 C8.42722489,11.239619 8.66049619,11.239619 8.80437356,11.3834964 L10.7292754,13.3083982 C10.801214,13.3803368 10.9178497,13.3803368 10.9897884,13.3083982 L15.1840481,9.11413846 C15.3279254,8.97026109 15.5611968,8.97026109 15.7050741,9.11413846 L16.3418837,9.75094808 C16.4857611,9.89482545 16.4857611,10.1280968 16.3418837,10.2719741 L11.1316233,15.4822346 C10.9877459,15.626112 10.7544746,15.626112 10.6105972,15.4822346 Z"></path>
                    </g>
                </g>
            </g>
        </g>
    </g>
</svg>