<?xml version="1.0" encoding="UTF-8"?>
<svg width="18px" height="18px" viewBox="0 0 18 18" version="1.1" xmlns="http://www.w3.org/2000/svg" xmlns:xlink="http://www.w3.org/1999/xlink">
    <title>切片</title>
    <g id="页面" stroke="none" stroke-width="1" fill="none" fill-rule="evenodd" opacity="0.699999988">
        <g id="02导航菜单" transform="translate(-111.000000, -4207.000000)">
            <g id="二层菜单" transform="translate(79.000000, 3616.000000)">
                <g id="选项-&lt;v0&gt;" transform="translate(0.000000, 80.000000)">
                    <g id="menu/first/arrow/normal备份" transform="translate(0.000000, 496.000000)">
                        <g id="icon" transform="translate(32.000000, 15.000000)">
                            <rect id="透明层" fill="#000000" opacity="0" x="0" y="0" width="18" height="18"></rect>
                            <path d="M11.8258333,2.0454391 L11.8458743,2.05332902 C11.9199754,2.08334545 12.2029487,2.20487248 12.7508333,2.51652962 C13.3958333,2.886496 13.6258333,3.07887851 13.6258333,3.07887851 C13.8816667,3.29510331 14.0091667,3.73001934 13.9108333,4.04572399 L13.8341667,4.27345885 C13.6885745,4.87504041 13.781275,5.50876471 14.0933333,6.04518673 C14.4022204,6.57634345 14.9051105,6.97102012 15.4991667,7.14850868 L15.7433333,7.20441471 C16.0708333,7.27594154 16.385,7.60644483 16.4433333,7.93037095 C16.4433333,7.93037095 16.4966667,8.22387761 16.5,8.96545466 C16.5,9.70703173 16.4466667,9.99889409 16.4466667,9.99889409 C16.3866667,10.3244645 16.0691667,10.6508571 15.7466667,10.7248503 L15.5158333,10.7774678 C14.9167055,10.9543038 14.4094669,11.3517041 14.0991667,11.8873669 C13.7882968,12.420905 13.6958802,13.0514905 13.8408333,13.6500512 L13.9108333,13.8835411 C14.0091667,14.2025343 13.8816667,14.6374503 13.6258333,14.8503865 C13.6258333,14.8503865 13.3991667,15.042769 12.7525,15.4127354 C12.2046154,15.7243926 11.9186588,15.8459196 11.8436398,15.875936 L11.8233333,15.8838259 L11.8233333,15.8838259 C11.5075,15.9964602 11.0641667,15.8887588 10.8375,15.6470475 L10.6766667,15.4743965 C9.74017268,14.5883996 8.26238666,14.5876746 7.32500001,15.4727522 L7.16416667,15.644581 C6.93416667,15.8871145 6.4925,15.9964602 6.17833333,15.8821816 L6.15823926,15.8743905 C6.08395463,15.8447034 5.80038461,15.7241396 5.2525,15.4110911 C4.6075,15.0411248 4.3775,14.8487422 4.3775,14.8487422 C4.12166667,14.6325174 3.99416668,14.1976014 4.09250001,13.8818968 L4.15916666,13.6574505 C4.3,13.0778365 4.22249999,12.4431386 3.9,11.8857226 C3.59170842,11.348362 3.0836823,10.9503448 2.48333333,10.7758235 L2.25333334,10.723206 C1.92583335,10.6516792 1.61166667,10.3244645 1.55333334,9.99724979 C1.55333334,9.99724979 1.50788955,9.74856234 1.50089819,9.12703229 L1.5,8.96381038 C1.5,8.22223332 1.55333334,7.93037095 1.55333334,7.93037095 C1.61333333,7.60480054 1.93083334,7.27840799 2.25333334,7.20441471 L2.48916666,7.15179727 C3.08787905,6.97684411 3.59487334,6.58034573 3.90416667,6.04518673 C4.21497424,5.50922629 4.30733919,4.87664152 4.1625,4.27592528 L4.09250001,4.04572399 C3.99416666,3.72673076 4.12166666,3.29592546 4.37666666,3.08216711 C4.37666666,3.08216711 4.60416667,2.88978459 5.25166666,2.51652962 C5.89833334,2.14820754 6.18,2.0454391 6.18,2.0454391 C6.49583333,1.93280489 6.93916667,2.04050622 7.16666667,2.28303973 L7.32916667,2.45815714 C7.77931461,2.88430254 8.3794698,3.12155487 9.00333334,3.11998588 C9.62397572,3.1221307 10.2213283,2.88698629 10.67,2.46391217 L10.84,2.28303973 C11.07,2.04050622 11.5108333,1.93116059 11.8258333,2.0454391 Z M11.5330341,3.00537445 L11.3560479,3.19146853 C10.7206036,3.79065957 9.87631552,4.1230087 9.00584829,4.11998272 C8.12583505,4.12219591 7.27851976,3.78723666 6.59614564,3.13836312 L6.472,3.005 L6.43855841,3.01957667 C6.32752713,3.06985142 6.09699238,3.18588436 5.7510852,3.38289047 C5.38667432,3.59295715 5.1683109,3.73641008 5.06622298,3.81180285 L5.13464171,4.04153139 C5.33980099,4.89242341 5.20894978,5.78859116 4.76996842,6.54557392 C4.3316108,7.30404816 3.61468757,7.86472292 2.70692534,8.12779992 L2.529,8.167 L2.52948522,8.17726043 C2.52808451,8.19439133 2.52585099,8.21931133 2.52344342,8.24922466 C2.50898646,8.42884802 2.5,8.66545506 2.5,8.96381038 C2.5,9.26216569 2.50898646,9.49877273 2.52344342,9.67839608 C2.52616611,9.71222475 2.52866622,9.7396674 2.53079971,9.76117626 L2.76247751,9.81557428 C3.6107612,10.0621701 4.32995071,10.625625 4.7655707,11.3849359 C5.21027041,12.1535645 5.3357485,13.0504567 5.11777371,13.9421829 L5.06561233,14.1175673 C5.16714722,14.191871 5.38613751,14.3349191 5.74860495,14.5428286 C6.12067513,14.7554208 6.3571808,14.8732421 6.47085107,14.922443 L6.63847161,14.7456492 C7.96150258,13.4964475 10.0421371,13.4974682 11.4083718,14.7927752 L11.5307094,14.924108 C11.6463805,14.8741773 11.8846474,14.7559352 12.2559133,14.5447483 C12.6182319,14.3374611 12.8348099,14.195711 12.9378632,14.1194749 L12.8689266,13.8854173 C12.6631539,13.0357123 12.7943667,12.1404089 13.2338662,11.3861134 C13.6728086,10.628379 14.3887191,10.067493 15.2935885,9.80247691 L15.469,9.762 L15.4705148,9.75200464 C15.4719155,9.73487375 15.474149,9.70995376 15.4765566,9.68004044 C15.4910135,9.50041708 15.5000101,9.26381003 15.5000101,8.96994955 C15.4987024,8.67902579 15.4893168,8.44575949 15.4749317,8.26591391 C15.4716036,8.22430449 15.4685512,8.19125978 15.4660452,8.16641868 L15.2128966,8.10665766 C14.3758293,7.85656369 13.6659081,7.29940539 13.2289557,6.54803 C12.7872971,5.78882753 12.6559182,4.8906888 12.8864302,3.95440454 L12.9357138,3.80858551 C12.8333521,3.73389575 12.6150988,3.59149783 12.2563934,3.38574139 C11.8829422,3.17330846 11.6448147,3.05443659 11.5330341,3.00537445 Z M9.00333334,5.99750216 C10.6525,5.99750216 11.9933333,7.32527039 11.9933333,8.96709896 C11.9905429,10.3387625 11.0522125,11.4926437 9.77915922,11.8321318 C9.61403225,11.8761666 9.35514584,11.9101991 9.0025,11.9342293 C7.3525,11.9342293 6.01165261,10.6056389 6.01165261,8.96381038 C6.00923224,8.17892555 6.32316377,7.42528119 6.88430635,6.86889506 C7.44544892,6.31250894 8.20776744,5.99902593 9.00333334,5.99750216 Z M9.00524866,6.99750033 C8.47226503,6.99852117 7.96237052,7.20820158 7.58839715,7.57900502 C7.21703755,7.94721683 7.01005953,8.44410168 7.01165737,8.96381038 C7.01165737,10.0402037 7.88509215,10.9173273 8.9710185,10.933988 C9.24520895,10.91428 9.43587409,10.88873 9.52149144,10.8658982 C10.3820623,10.6364077 10.9915159,9.85945673 10.9933333,8.96709895 C10.9933333,7.88065085 10.1033066,6.99750033 9.00524866,6.99750033 Z" fill="#FFFFFF"></path>
                        </g>
                    </g>
                </g>
            </g>
        </g>
    </g>
</svg>