<?xml version="1.0" encoding="UTF-8"?>
<svg width="18px" height="18px" viewBox="0 0 18 18" version="1.1" xmlns="http://www.w3.org/2000/svg" xmlns:xlink="http://www.w3.org/1999/xlink">
    <title>切片</title>
    <g id="页面" stroke="none" stroke-width="1" fill="none" fill-rule="evenodd" opacity="0.699999988">
        <g id="02导航菜单" transform="translate(-111.000000, -3951.000000)">
            <g id="二层菜单" transform="translate(79.000000, 3616.000000)">
                <g id="选项-&lt;v0&gt;" transform="translate(0.000000, 80.000000)">
                    <g id="menu/first/arrow/normal" transform="translate(0.000000, 240.000000)">
                        <g id="icon" transform="translate(32.000000, 15.000000)">
                            <rect id="透明层" fill-rule="nonzero" x="0" y="0" width="18" height="18"></rect>
                            <g id="yunweiguanli" transform="translate(2.000000, 2.000000)" fill="#FFFFFF">
                                <path d="M10.0304031,12.9894228 C10.3065455,12.9894228 10.5304031,13.2132804 10.5304031,13.4894228 C10.5304031,13.7348827 10.353528,13.9390312 10.1202788,13.9813671 L10.0304031,13.9894228 L4.0086689,13.9894228 C3.73252652,13.9894228 3.5086689,13.7655652 3.5086689,13.4894228 C3.5086689,13.2439629 3.68554406,13.0398144 3.91879327,12.9974785 L4.0086689,12.9894228 L10.0304031,12.9894228 Z M13,0 C13.5522847,0 14,0.488416637 14,1.09090909 L14,1.09090909 L14,10.9090909 C14,11.5115834 13.5522847,12 13,12 L13,12 L1,12 C0.44771525,12 0,11.5115834 0,10.9090909 L0,10.9090909 L0,1.09090909 C0,0.488416637 0.44771525,0 1,0 L1,0 Z M13,1 L1,1 L1,11 L13,11 L13,1 Z M7,2.5 C7.82842712,2.5 8.5,3.17157288 8.5,4 C8.5,4.22533218 8.45031435,4.43905965 8.36130107,4.6308244 L9.38214795,5.63275264 C9.57056026,5.54747579 9.77973585,5.5 10,5.5 C10.8284271,5.5 11.5,6.17157288 11.5,7 C11.5,7.82842712 10.8284271,8.5 10,8.5 C9.17157288,8.5 8.5,7.82842712 8.5,7 C8.5,6.75790436 8.55735331,6.52920429 8.65921393,6.32674581 L7.66148816,5.34664109 C7.46195205,5.44484183 7.23741747,5.5 7,5.5 C6.88426386,5.5 6.77158915,5.48689242 6.6633794,5.46208076 L5.30654738,7.26262334 C5.42970561,7.48037705 5.5,7.73197946 5.5,8 C5.5,8.82842712 4.82842712,9.5 4,9.5 C3.17157288,9.5 2.5,8.82842712 2.5,8 C2.5,7.17157288 3.17157288,6.5 4,6.5 C4.19380805,6.5 4.37903128,6.53675599 4.54907913,6.60367742 L5.81761536,4.92312871 C5.61860589,4.66858923 5.5,4.34814556 5.5,4 C5.5,3.17157288 6.17157288,2.5 7,2.5 Z M4,7.5 C3.72385763,7.5 3.5,7.72385763 3.5,8 C3.5,8.27614237 3.72385763,8.5 4,8.5 C4.27614237,8.5 4.5,8.27614237 4.5,8 C4.5,7.72385763 4.27614237,7.5 4,7.5 Z M10,6.5 C9.72385763,6.5 9.5,6.72385763 9.5,7 C9.5,7.27614237 9.72385763,7.5 10,7.5 C10.2761424,7.5 10.5,7.27614237 10.5,7 C10.5,6.72385763 10.2761424,6.5 10,6.5 Z M7,3.5 C6.72385763,3.5 6.5,3.72385763 6.5,4 C6.5,4.27614237 6.72385763,4.5 7,4.5 C7.27614237,4.5 7.5,4.27614237 7.5,4 C7.5,3.72385763 7.27614237,3.5 7,3.5 Z" id="形状结合"></path>
                            </g>
                        </g>
                    </g>
                </g>
            </g>
        </g>
    </g>
</svg>