<?xml version="1.0" encoding="UTF-8"?>
<svg width="18px" height="18px" viewBox="0 0 18 18" version="1.1" xmlns="http://www.w3.org/2000/svg" xmlns:xlink="http://www.w3.org/1999/xlink">
    <title>切片</title>
    <g id="页面" stroke="none" stroke-width="1" fill="none" fill-rule="evenodd" opacity="0.699999988">
        <g id="02导航菜单" transform="translate(-111.000000, -3807.000000)">
            <g id="二层菜单" transform="translate(79.000000, 3616.000000)">
                <g id="选项-&lt;v0&gt;" transform="translate(0.000000, 80.000000)">
                    <g id="menu/first/arrow/selected-secondary" transform="translate(0.000000, 96.000000)">
                        <g id="icon" transform="translate(32.000000, 15.000000)">
                            <rect id="透明层" fill="#000000" opacity="0" x="0" y="0" width="18" height="18"></rect>
                            <path d="M7.31820239,9.54156864 C7.89914599,9.54156864 8.37009383,10.0060431 8.37009383,10.5936012 L8.37009383,14.9479674 C8.37009383,15.528989 7.90168562,16 7.31820239,16 L3.05189144,16 C2.47094784,16 2,15.5355255 2,14.9479674 L2,10.5936012 C2,10.0125797 2.4684082,9.54156864 3.05189144,9.54156864 L7.31820239,9.54156864 Z M14.5810745,9.54156864 C15.1620181,9.54156864 15.6329659,10.0060431 15.6329659,10.5936012 L15.6329659,14.9479674 C15.6329659,15.528989 15.1645577,16 14.5810745,16 L10.3147636,16 C9.73381998,16 9.2628721,15.5355255 9.2628721,14.9479674 L9.2628721,10.5936012 C9.2628721,10.0125797 9.73128031,9.54156864 10.3147636,9.54156864 L14.5810745,9.54156864 Z M7.31820239,10.5415686 L3.05189144,10.5415686 C3.02197414,10.5415686 3,10.5635824 3,10.5936012 L3,14.9479674 C3,14.9800483 3.02003499,15 3.05189144,15 L7.31820239,15 C7.34811969,15 7.37009383,14.9779862 7.37009383,14.9479674 L7.37009383,10.5936012 C7.37009383,10.5615203 7.35005885,10.5415686 7.31820239,10.5415686 Z M14.5810745,10.5415686 L10.3147636,10.5415686 C10.2848462,10.5415686 10.2628721,10.5635824 10.2628721,10.5936012 L10.2628721,14.9479674 C10.2628721,14.9800483 10.2829071,15 10.3147636,15 L14.5810745,15 C14.6109918,15 14.6329659,14.9779862 14.6329659,14.9479674 L14.6329659,10.5936012 C14.6329659,10.5615203 14.612931,10.5415686 14.5810745,10.5415686 Z M7.31820239,2.17053283 C7.89914599,2.17053283 8.37009383,2.63500729 8.37009383,3.2225654 L8.37009383,7.57693163 C8.37009383,8.15795317 7.90168562,8.62896419 7.31820239,8.62896419 L3.05189144,8.62896419 C2.47094784,8.62896419 2,8.16448974 2,7.57693163 L2,3.2225654 C2,2.64154386 2.4684082,2.17053283 3.05189144,2.17053283 L7.31820239,2.17053283 Z M11.3940145,2.28059241 L14.5139549,3.11657793 L15.3499404,6.23651835 L13.0659855,8.52047325 L9.9460451,7.68448774 L9.11005958,4.56454732 L11.3940145,2.28059241 Z M7.31820239,3.17053283 L3.05189144,3.17053283 C3.02197414,3.17053283 3,3.19254664 3,3.2225654 L3,7.57693163 C3,7.60901252 3.02003499,7.62896419 3.05189144,7.62896419 L7.31820239,7.62896419 C7.34811968,7.62896419 7.37009383,7.60695038 7.37009383,7.57693163 L7.37009383,3.2225654 C7.37009383,3.19048451 7.35005885,3.17053283 7.31820239,3.17053283 Z M11.6929756,3.39480123 L10.2250219,4.86275491 L10.7624231,6.86669553 L12.7670708,7.40480379 L14.2350245,5.93685011 L13.6969162,3.93220239 L11.6929756,3.39480123 Z" id="形状结合" fill="#FFFFFF"></path>
                        </g>
                    </g>
                </g>
            </g>
        </g>
    </g>
</svg>