<?xml version="1.0" encoding="UTF-8"?>
<svg width="18px" height="18px" viewBox="0 0 18 18" version="1.1" xmlns="http://www.w3.org/2000/svg" xmlns:xlink="http://www.w3.org/1999/xlink">
    <title>切片</title>
    <g id="页面" stroke="none" stroke-width="1" fill="none" fill-rule="evenodd" opacity="0.699999988">
        <g id="02导航菜单" transform="translate(-111.000000, -3759.000000)">
            <g id="二层菜单" transform="translate(79.000000, 3616.000000)">
                <g id="选项-&lt;v0&gt;" transform="translate(0.000000, 80.000000)">
                    <g id="menu/first/arrow/normal备份-4" transform="translate(0.000000, 48.000000)">
                        <g id="icon" transform="translate(32.000000, 15.000000)">
                            <rect id="透明层" fill-rule="nonzero" x="0" y="0" width="18" height="18"></rect>
                            <path d="M13,4 C13.5522847,4 14,4.44771525 14,5 L14,15 C14,15.5522847 13.5522847,16 13,16 L3,16 C2.44771525,16 2,15.5522847 2,15 L2,5 C2,4.44771525 2.44771525,4 3,4 L13,4 Z M13,5 L3,5 L3,15 L13,15 L13,5 Z M15.4978983,2.00119495 C15.7433582,2.00119495 15.9475067,2.17807011 15.9898427,2.41131932 L15.9978983,2.50119495 L15.9978983,13.9406013 C15.9978983,14.2167437 15.7740407,14.4406013 15.4978983,14.4406013 C15.2524384,14.4406013 15.04829,14.2637262 15.005954,14.030477 L14.9978983,13.9406013 L14.9972755,3.00119495 L5,3.00119495 C4.75454011,3.00119495 4.55039163,2.82431979 4.50805567,2.59107059 L4.5,2.50119495 C4.5,2.25573507 4.67687516,2.05158658 4.91012437,2.00925062 L5,2.00119495 L15.4978983,2.00119495 Z M10.6165729,6.9024502 C10.7825234,7.08331208 10.7902173,7.35331621 10.646975,7.54220557 L10.5861984,7.60890429 L8.905,9.15119495 L10.2528114,9.15157776 C10.5289538,9.15157776 10.7528114,9.37543538 10.7528114,9.65157776 C10.7528114,9.89703765 10.5759363,10.1011861 10.3426871,10.1435221 L10.2528114,10.1515778 L8.481,10.151195 L8.481,11.151195 L10.2528114,11.1515778 C10.5289538,11.1515778 10.7528114,11.3754354 10.7528114,11.6515778 C10.7528114,11.8970376 10.5759363,12.1011861 10.3426871,12.1435221 L10.2528114,12.1515778 L8.481,12.151195 L8.48186526,12.8806316 C8.48186526,13.156774 8.25800764,13.3806316 7.98186526,13.3806316 C7.73640537,13.3806316 7.53225689,13.2037564 7.48992093,12.9705072 L7.48186526,12.8806316 L7.481,12.151195 L5.71091909,12.1515778 C5.43477672,12.1515778 5.21091909,11.9277201 5.21091909,11.6515778 C5.21091909,11.4061179 5.38779425,11.2019694 5.62104346,11.1596334 L5.71091909,11.1515778 L7.481,11.151195 L7.481,10.151195 L5.71091909,10.1515778 C5.43477672,10.1515778 5.21091909,9.92772013 5.21091909,9.65157776 C5.21091909,9.40611787 5.38779425,9.20196939 5.62104346,9.15963343 L5.71091909,9.15157776 L7.302,9.15119495 L5.61444105,7.6096103 C5.41058151,7.42334194 5.39632105,7.10708079 5.58258941,6.90322126 C5.74816129,6.72201278 6.01644351,6.69061098 6.21719475,6.81669217 L6.28897845,6.87136962 L8.103,8.5291137 L9.91011886,6.87207563 C10.1135885,6.68538142 10.4298787,6.69898058 10.6165729,6.9024502 Z" id="形状结合" fill="#FFFFFF"></path>
                        </g>
                    </g>
                </g>
            </g>
        </g>
    </g>
</svg>