<?xml version="1.0" encoding="UTF-8"?>
<svg width="18px" height="18px" viewBox="0 0 18 18" version="1.1" xmlns="http://www.w3.org/2000/svg" xmlns:xlink="http://www.w3.org/1999/xlink">
    <title>切片</title>
    <g id="页面" stroke="none" stroke-width="1" fill="none" fill-rule="evenodd">
        <g id="02导航菜单" transform="translate(-111.000000, -3999.000000)">
            <g id="二层菜单" transform="translate(79.000000, 3616.000000)">
                <g id="选项-&lt;v0&gt;" transform="translate(0.000000, 80.000000)">
                    <g id="menu/first/arrow/normal备份-2" transform="translate(0.000000, 288.000000)">
                        <g id="icon" transform="translate(32.000000, 15.000000)">
                            <rect id="透明层" fill-rule="nonzero" x="0" y="0" width="18" height="18"></rect>
                            <path d="M8.48467263,2.14300659 C8.80139344,1.952556 9.19733319,1.95231536 9.51428527,2.14238082 L9.51428527,2.14238082 L14.5170681,5.14238082 C14.8183929,5.32307513 15.0027828,5.64864965 15.0027828,6 L15.0027828,6 L15.0027828,12 C15.0027828,12.3513503 14.8183929,12.6769249 14.5170681,12.8576192 L14.5170681,12.8576192 L9.51428527,15.8576192 C9.19733319,16.0476846 8.80139344,16.047444 8.48467263,15.8569934 L8.48467263,15.8569934 L3.49564942,12.8569934 C3.19491581,12.6761562 3.01097679,12.3509171 3.01097679,12 L3.01097679,12 L3.01097679,6 C3.01097679,5.64908294 3.19491581,5.32384376 3.49564942,5.14300659 L3.49564942,5.14300659 Z M9,3 L4.01097679,6 L4.01097679,12 L9,15 L14.0027828,12 L14.0027828,6 L9,3 Z M12.7064375,6.9749733 C12.8296635,7.18726067 12.7791787,7.45261461 12.5987054,7.60632502 L12.52502,7.65841144 L9.508,9.409 L9.50828455,12.8656025 C9.50828455,13.494535 8.6176264,13.5304624 8.51742144,12.9715223 L8.50828578,12.8667103 L8.501,9.412 L5.44356863,7.65979253 C5.23060325,7.53774211 5.14142832,7.28277299 5.22067577,7.05935104 L5.25837553,6.9773678 C5.38042596,6.76440243 5.63539508,6.67522749 5.85881703,6.75447494 L5.94080027,6.7921747 L9.002,8.546 L12.0229994,6.7935558 C12.2618227,6.65492663 12.5678084,6.73615001 12.7064375,6.9749733 Z" id="形状结合" fill="#FFFFFF"></path>
                        </g>
                    </g>
                </g>
            </g>
        </g>
    </g>
</svg>