<?xml version="1.0" encoding="UTF-8"?>
<svg width="18px" height="18px" viewBox="0 0 18 18" version="1.1" xmlns="http://www.w3.org/2000/svg" xmlns:xlink="http://www.w3.org/1999/xlink">
    <title>切片</title>
    <g id="页面" stroke="none" stroke-width="1" fill="none" fill-rule="evenodd">
        <g id="03图标" transform="translate(-678.000000, -690.000000)">
            <g id="icon-&lt;h16-&gt;" transform="translate(508.000000, 690.000000)">
                <g id="icon18*18/iisg-icon-nav-dashboard" transform="translate(170.000000, 0.000000)">
                    <rect id="透明层" fill-rule="nonzero" x="0" y="0" width="18" height="18"></rect>
                    <path d="M7,11 C7.55228475,11 8,11.4477153 8,12 L8,15 C8,15.5522847 7.55228475,16 7,16 L3,16 C2.44771525,16 2,15.5522847 2,15 L2,12 C2,11.4477153 2.44771525,11 3,11 L7,11 Z M15,9 C15.5522847,9 16,9.44771525 16,10 L16,15 C16,15.5522847 15.5522847,16 15,16 L11,16 C10.4477153,16 10,15.5522847 10,15 L10,10 C10,9.44771525 10.4477153,9 11,9 L15,9 Z M7,12 L3,12 L3,15 L7,15 L7,12 Z M15,10 L11,10 L11,15 L15,15 L15,10 Z M7,2 C7.55228475,2 8,2.44771525 8,3 L8,8 C8,8.55228475 7.55228475,9 7,9 L3,9 C2.44771525,9 2,8.55228475 2,8 L2,3 C2,2.44771525 2.44771525,2 3,2 L7,2 Z M7,3 L3,3 L3,8 L7,8 L7,3 Z M15,2 C15.5522847,2 16,2.44771525 16,3 L16,6 C16,6.55228475 15.5522847,7 15,7 L11,7 C10.4477153,7 10,6.55228475 10,6 L10,3 C10,2.44771525 10.4477153,2 11,2 L15,2 Z M15,3 L11,3 L11,6 L15,6 L15,3 Z" id="icon" fill="#FFFFFF"></path>
                </g>
            </g>
        </g>
    </g>
</svg>