<?xml version="1.0" encoding="UTF-8"?>
<svg width="18px" height="18px" viewBox="0 0 18 18" version="1.1" xmlns="http://www.w3.org/2000/svg" xmlns:xlink="http://www.w3.org/1999/xlink">
    <title>切片</title>
    <g id="页面" stroke="none" stroke-width="1" fill="none" fill-rule="evenodd">
        <g id="03图标" transform="translate(-542.000000, -690.000000)">
            <g id="icon-&lt;h16-&gt;" transform="translate(508.000000, 690.000000)">
                <g id="icon18*18/iisg-icon-nav-itemstatistics" transform="translate(34.000000, 0.000000)">
                    <rect id="透明层" fill-rule="nonzero" x="0" y="0" width="18" height="18"></rect>
                    <path d="M15,2 C15.5522847,2 16,2.44771525 16,3 L16,15 C16,15.5522847 15.5522847,16 15,16 L3,16 C2.44771525,16 2,15.5522847 2,15 L2,3 C2,2.44771525 2.44771525,2 3,2 L15,2 Z M15,3 L3,3 L3,15 L15,15 L15,3 Z M6,8 L6,13 L5,13 L5,8 L6,8 Z M9.5,5 L9.5,13 L8.5,13 L8.5,5 L9.5,5 Z M13,7 L13,13 L12,13 L12,7 L13,7 Z" id="icon" fill="#FFFFFF"></path>
                </g>
            </g>
        </g>
    </g>
</svg>