<?xml version="1.0" encoding="UTF-8"?>
<svg width="18px" height="18px" viewBox="0 0 18 18" version="1.1" xmlns="http://www.w3.org/2000/svg" xmlns:xlink="http://www.w3.org/1999/xlink">
    <title>切片</title>
    <g id="页面" stroke="none" stroke-width="1" fill="none" fill-rule="evenodd" opacity="0.699999988">
        <g id="02导航菜单" transform="translate(-111.000000, -3711.000000)" fill-rule="nonzero">
            <g id="二层菜单" transform="translate(79.000000, 3616.000000)">
                <g id="选项-&lt;v0&gt;" transform="translate(0.000000, 80.000000)">
                    <g id="icon" transform="translate(32.000000, 15.000000)">
                        <rect id="透明层" x="0" y="0" width="18" height="18"></rect>
                        <g id="面" transform="translate(2.000000, 2.000000)" fill="#FFFFFF">
                            <path d="M2.07864226,7.99609578 C2.33247962,7.8873704 2.62639479,8.0050069 2.73512017,8.25884426 C2.84384554,8.51268162 2.72620904,8.80659679 2.47237168,8.91532216 C1.82121733,9.19422911 1,9.92132036 1,10.4128814 C1,11.7679957 3.71530821,12.9989533 7,12.9989533 C10.2915252,12.9989533 13,11.7735925 13,10.4128814 C13,10.0241017 12.4754799,9.38611595 11.5641244,8.94542747 C11.3155213,8.82521473 11.2114403,8.52623041 11.3316531,8.2776273 C11.4518658,8.02902418 11.7508501,7.9249432 11.9994532,8.04515594 C13.2229273,8.63677025 14,9.5819414 14,10.4128814 C14,12.5425453 10.7808305,13.9989533 7,13.9989533 C3.22621847,13.9989533 0,12.5363797 0,10.4128814 C0,9.38473377 1.09023897,8.41945553 2.07864226,7.99609578 Z M7,0 C9.76142375,0 12,2.23857625 12,5 C12,6.84094917 10.3333333,9.1742825 7,12 C3.66666667,9.1742825 2,6.84094917 2,5 C2,2.23857625 4.23857625,0 7,0 Z M7,1 C4.790861,1 3,2.790861 3,5 C3,6.31721389 4.24057386,8.18148961 6.78411863,10.482637 L7,10.675 L7.21588137,10.482637 C9.66858525,8.26367345 10.9097256,6.45093368 10.9952501,5.14321839 L11,5 C11,2.790861 9.209139,1 7,1 Z M7,2.5 C8.38071187,2.5 9.5,3.61928813 9.5,5 C9.5,6.38071187 8.38071187,7.5 7,7.5 C5.61928813,7.5 4.5,6.38071187 4.5,5 C4.5,3.61928813 5.61928813,2.5 7,2.5 Z M7,3.5 C6.17157288,3.5 5.5,4.17157288 5.5,5 C5.5,5.82842712 6.17157288,6.5 7,6.5 C7.82842712,6.5 8.5,5.82842712 8.5,5 C8.5,4.17157288 7.82842712,3.5 7,3.5 Z" id="形状结合"></path>
                        </g>
                    </g>
                </g>
            </g>
        </g>
    </g>
</svg>