<?xml version="1.0" encoding="UTF-8"?>
<svg width="18px" height="18px" viewBox="0 0 18 18" version="1.1" xmlns="http://www.w3.org/2000/svg" xmlns:xlink="http://www.w3.org/1999/xlink">
    <title>切片</title>
    <g id="页面" stroke="none" stroke-width="1" fill="none" fill-rule="evenodd">
        <g id="03图标" transform="translate(-610.000000, -690.000000)">
            <g id="icon-&lt;h16-&gt;" transform="translate(508.000000, 690.000000)">
                <g id="icon18*18/iisg-icon-nav-datadetail" transform="translate(102.000000, 0.000000)">
                    <rect id="透明层" fill-rule="nonzero" x="0" y="0" width="18" height="18"></rect>
                    <path d="M2.5,2 C2.77614237,2 3,2.22385763 3,2.5 L3,15 L15.5,15 C15.7761424,15 16,15.2238576 16,15.5 C16,15.7761424 15.7761424,16 15.5,16 L3,16 C2.44771525,16 2,15.5522847 2,15 L2,2.5 C2,2.22385763 2.22385763,2 2.5,2 Z M15,6.48408982 L15,13.4840898 L14,13.4840898 L14,6.48408982 L15,6.48408982 Z M6,9.48408982 L6,13.4840898 L5,13.4840898 L5,9.48408982 L6,9.48408982 Z M9,7.48408982 L9,13.4840898 L8,13.4840898 L8,7.48408982 L9,7.48408982 Z M12,8.48408982 L12,13.4840898 L11,13.4840898 L11,8.48408982 L12,8.48408982 Z M14.2928932,2.63431908 L15,3.34142586 L12.094,6.24731908 L12.097436,6.25054051 L11.3903292,6.95764729 L8.69,4.25631908 L5.70710678,7.21433952 L5,6.50723274 L8.69349747,2.84523312 L9.40060425,3.5523399 L9.398,3.55331908 L11.386,5.53931908 L14.2928932,2.63431908 Z" id="icon" fill="#FFFFFF"></path>
                </g>
            </g>
        </g>
    </g>
</svg>