<?xml version="1.0" encoding="UTF-8"?>
<svg width="18px" height="18px" viewBox="0 0 18 18" version="1.1" xmlns="http://www.w3.org/2000/svg" xmlns:xlink="http://www.w3.org/1999/xlink">
    <title>切片</title>
    <g id="页面" stroke="none" stroke-width="1" fill="none" fill-rule="evenodd">
        <g id="03图标" transform="translate(-712.000000, -724.000000)">
            <g id="icon-&lt;h16-&gt;" transform="translate(508.000000, 690.000000)">
                <g id="icon18*18/iisg-icon-nav-customer-management" transform="translate(204.000000, 34.000000)">
                    <rect id="透明层" fill-rule="nonzero" x="0" y="0" width="18" height="18"></rect>
                    <path d="M8,2 C9.1045695,2 10,2.8954305 10,4 L10,6 L14,6 C15.1045695,6 16,6.8954305 16,8 L16,16 L4,16 C2.8954305,16 2,15.1045695 2,14 L2,4 C2,2.8954305 2.8954305,2 4,2 L8,2 Z M8,3 L4,3 C3.48716416,3 3.06449284,3.38604019 3.00672773,3.88337887 L3,4 L3,14 C3,14.5128358 3.38604019,14.9355072 3.88337887,14.9932723 L4,15 L9,15 L9,4 C9,3.48716416 8.61395981,3.06449284 8.11662113,3.00672773 L8,3 Z M14,7 L10,7 L10,15 L15,15 L15,8 C15,7.48716416 14.6139598,7.06449284 14.1166211,7.00672773 L14,7 Z M12.5,11 C12.7761424,11 13,11.2238576 13,11.5 L13,12.5 C13,12.7761424 12.7761424,13 12.5,13 C12.2238576,13 12,12.7761424 12,12.5 L12,11.5 C12,11.2238576 12.2238576,11 12.5,11 Z M7.5,11 C7.77614237,11 8,11.2238576 8,11.5 C8,11.7761424 7.77614237,12 7.5,12 L4.5,12 C4.22385763,12 4,11.7761424 4,11.5 C4,11.2238576 4.22385763,11 4.5,11 L7.5,11 Z M12.5,8 C12.7761424,8 13,8.22385763 13,8.5 L13,9.5 C13,9.77614237 12.7761424,10 12.5,10 C12.2238576,10 12,9.77614237 12,9.5 L12,8.5 C12,8.22385763 12.2238576,8 12.5,8 Z M7.5,8 C7.77614237,8 8,8.22385763 8,8.5 C8,8.77614237 7.77614237,9 7.5,9 L4.5,9 C4.22385763,9 4,8.77614237 4,8.5 C4,8.22385763 4.22385763,8 4.5,8 L7.5,8 Z M7.5,5 C7.77614237,5 8,5.22385763 8,5.5 C8,5.77614237 7.77614237,6 7.5,6 L4.5,6 C4.22385763,6 4,5.77614237 4,5.5 C4,5.22385763 4.22385763,5 4.5,5 L7.5,5 Z" id="形状结合" fill="#FFFFFF"></path>
                </g>
            </g>
        </g>
    </g>
</svg>