<?xml version="1.0" encoding="UTF-8"?>
<svg width="18px" height="18px" viewBox="0 0 18 18" version="1.1" xmlns="http://www.w3.org/2000/svg" xmlns:xlink="http://www.w3.org/1999/xlink">
    <title>切片</title>
    <g id="页面" stroke="none" stroke-width="1" fill="none" fill-rule="evenodd" opacity="0.699999988">
        <g id="02导航菜单" transform="translate(-111.000000, -3855.000000)">
            <g id="二层菜单" transform="translate(79.000000, 3616.000000)">
                <g id="选项-&lt;v0&gt;" transform="translate(0.000000, 80.000000)">
                    <g id="menu/first/arrow/selected-secondary备份" transform="translate(0.000000, 144.000000)">
                        <g id="icon" transform="translate(32.000000, 15.000000)">
                            <rect id="透明层" fill-rule="nonzero" x="0" y="0" width="18" height="18"></rect>
                            <path d="M5.99735659,2.15360691 L6.04534706,2.1805512 L8.08918629,3.37156752 C8.38860749,3.54603404 8.60462034,3.82777227 8.70073416,4.15296365 C8.9186954,4.09992962 9.14840056,4.10556696 9.36597631,4.16818482 C9.47128405,3.93478696 9.64390235,3.7322769 9.86695579,3.59050392 L9.91081364,3.56393543 L11.9546529,2.37299427 C12.3505277,2.14216404 12.8359053,2.13203645 13.2409389,2.34604998 L13.2890038,2.37299427 L15.3328431,3.56393543 C15.7299465,3.79534813 15.9815335,4.21642305 15.9990692,4.6789854 L15.9999999,7.11267065 C16.0000744,7.57551484 15.7647014,8.0059094 15.3766823,8.25252289 L15.3328431,8.27901622 L13.2890038,9.47003254 C12.972425,9.65451087 12.5995512,9.69754224 12.2567432,9.59912665 C12.1762912,9.77485657 12.0591278,9.93243315 11.9117228,10.0598162 C12.191582,10.2985824 12.3629321,10.6495681 12.377278,11.0283292 L12.3782274,11.0796999 L12.3782274,13.4620896 C12.3782274,13.9248586 12.1428358,14.3552532 11.7548911,14.6018666 L11.7110519,14.6284351 L9.66721268,15.8194515 C9.27126339,16.0502065 8.78588578,16.0604093 8.38085218,15.846377 L8.33278725,15.8194515 L6.28894802,14.6284351 C5.89184458,14.3970224 5.64025762,13.9759475 5.62272192,13.5134603 L5.62179115,13.4620896 L5.62179115,11.0796999 C5.62179115,10.6827241 5.79491537,10.3106606 6.08730038,10.0575051 C5.89237704,9.89017892 5.7504585,9.66854215 5.67750429,9.42192954 C5.37221538,9.49517918 5.04555168,9.45597084 4.75907964,9.30459012 L4.71101471,9.27766463 L2.66717548,8.08664831 C2.27007204,7.85523561 2.01846646,7.4341419 2.00094938,6.9716735 L1.99999998,4.53791309 C1.99992554,4.07514405 2.23531711,3.6447495 2.62331763,3.39813601 L2.66717548,3.37156752 L4.71101471,2.1805512 C5.10687092,1.94979613 5.59234161,1.93959338 5.99735659,2.15360691 Z M10.910845,10.6705278 L9.66721268,11.3941251 C9.25432339,11.6346507 8.74567654,11.6346507 8.33278725,11.3941251 L8.33278725,11.3941251 L7.0891626,10.6705278 C7.039283,10.7706709 6.9607297,10.8557625 6.86086857,10.9130925 C6.80880133,10.9434002 6.77397194,10.9967626 6.76684225,11.0570209 L6.76553917,11.0796999 L6.76553917,13.4620896 C6.76553917,13.5226484 6.7937601,13.5796749 6.84182503,13.6159952 L6.86086857,13.6286969 L8.9047078,14.8197133 C8.95582565,14.8495136 9.01777766,14.8536849 9.07246967,14.8310058 L9.09529213,14.8197133 L11.1391314,13.6286969 C11.1911986,13.5983893 11.226028,13.5450269 11.2331577,13.4847686 L11.2344608,13.4620896 L11.2344608,11.0796999 C11.2344608,11.0110051 11.1981049,10.9474399 11.1391314,10.9130925 C11.0392702,10.8557625 10.9607228,10.7706709 10.910845,10.6705278 Z M9.09529213,5.29674984 C9.03631859,5.26240245 8.96368134,5.26240245 8.9047078,5.29674984 L8.9047078,5.29674984 L6.86086857,6.48776616 C6.80189502,6.52211355 6.76553917,6.5856036 6.76553917,6.65437354 L6.76553917,6.65437354 L6.76553917,9.03676318 C6.76553917,9.10547674 6.80189502,9.16902317 6.86086857,9.20338934 L6.86086857,9.20338934 L8.9047078,10.3943869 C8.96368134,10.4287343 9.03631859,10.4287343 9.09529213,10.3943869 L9.09529213,10.3943869 L11.1391314,9.20338934 C11.1981049,9.16902317 11.2344608,9.10547674 11.2344608,9.03676318 L11.2344608,9.03676318 L11.2344608,6.65437354 C11.2344608,6.5856036 11.1981049,6.52211355 11.1391314,6.48776616 L11.1391314,6.48776616 Z M12.5493959,3.36136476 L12.526499,3.37273247 L10.4826597,4.56367363 C10.4275195,4.59585871 10.3921521,4.65345534 10.3877874,4.71701948 L11.7110519,5.48802796 C12.1238667,5.72862878 12.3782274,6.17319069 12.3782274,6.65437354 L12.3782274,6.65437354 L12.378409,8.41090992 C12.42909,8.42331696 12.4789186,8.44298387 12.526499,8.47029434 C12.5776913,8.50009465 12.6396433,8.50426594 12.6942422,8.48166205 L12.7171577,8.47029434 L14.760997,7.27927802 C14.8130642,7.2489704 14.8478191,7.19560794 14.8549488,7.13542485 L14.8562519,7.11267065 L14.8562519,4.73035617 C14.8562519,4.66972213 14.828031,4.61277085 14.7800405,4.5763754 L14.760997,4.56367363 L12.7171577,3.37273247 C12.6659654,3.34293217 12.6040134,3.33868572 12.5493959,3.36136476 Z M5.30575772,3.16897806 L5.2828608,3.1802894 L3.23902157,4.37130572 C3.18702879,4.40161334 3.1521994,4.4549758 3.14506971,4.51523405 L3.14374802,4.53791309 L3.14374802,6.92030273 C3.14374802,6.98084282 3.17196894,7.03788804 3.21995941,7.07420834 L3.23902157,7.08691011 L5.2828608,8.27792643 C5.34189019,8.31227382 5.41454605,8.31227382 5.47351959,8.27792643 C5.52022663,8.2502637 5.56986467,8.22983544 5.62090423,8.21664613 L5.62179115,6.65437354 C5.62179115,6.17319069 5.87615181,5.72862878 6.28894802,5.48802796 L6.28894802,5.48802796 L7.6363725,4.70284968 C7.62096309,4.65059152 7.61268822,4.59522939 7.61268822,4.53791309 C7.61268822,4.47735421 7.58439283,4.42032778 7.53640236,4.3839887 L7.51735882,4.37130572 L5.47351959,3.1802894 C5.42232728,3.15048909 5.36037527,3.14629901 5.30575772,3.16897806 Z" id="形状结合" fill="#FFFFFF"></path>
                        </g>
                    </g>
                </g>
            </g>
        </g>
    </g>
</svg>