<?xml version="1.0" encoding="UTF-8"?>
<svg width="18px" height="18px" viewBox="0 0 18 18" version="1.1" xmlns="http://www.w3.org/2000/svg" xmlns:xlink="http://www.w3.org/1999/xlink">
    <title>切片</title>
    <g id="页面" stroke="none" stroke-width="1" fill="none" fill-rule="evenodd" opacity="0.699999988">
        <g id="02导航菜单" transform="translate(-111.000000, -3903.000000)">
            <g id="二层菜单" transform="translate(79.000000, 3616.000000)">
                <g id="选项-&lt;v0&gt;" transform="translate(0.000000, 80.000000)">
                    <g id="menu/first/arrow/normal" transform="translate(0.000000, 192.000000)">
                        <g id="icon" transform="translate(32.000000, 15.000000)">
                            <rect id="透明层" fill-rule="nonzero" x="0" y="0" width="18" height="18"></rect>
                            <g id="yunweiguanli" transform="translate(2.000000, 2.000000)" fill="#FFFFFF">
                                <path d="M10.0304031,12.9894228 C10.3065455,12.9894228 10.5304031,13.2132804 10.5304031,13.4894228 C10.5304031,13.7348827 10.353528,13.9390312 10.1202788,13.9813671 L10.0304031,13.9894228 L4.0086689,13.9894228 C3.73252652,13.9894228 3.5086689,13.7655652 3.5086689,13.4894228 C3.5086689,13.2439629 3.68554406,13.0398144 3.91879327,12.9974785 L4.0086689,12.9894228 L10.0304031,12.9894228 Z M13,0 C13.5522847,0 14,0.488416637 14,1.09090909 L14,1.09090909 L14,10.9090909 C14,11.5115834 13.5522847,12 13,12 L13,12 L1,12 C0.44771525,12 0,11.5115834 0,10.9090909 L0,10.9090909 L0,1.09090909 C0,0.488416637 0.44771525,0 1,0 L1,0 Z M13,1 L1,1 L1,11 L13,11 L13,1 Z M7,3 C8.65685425,3 10,4.34314575 10,6 C10,7.65685425 8.65685425,9 7,9 C5.34314575,9 4,7.65685425 4,6 C4,4.34314575 5.34314575,3 7,3 Z M7,4 C5.8954305,4 5,4.8954305 5,6 C5,7.1045695 5.8954305,8 7,8 C8.1045695,8 9,7.1045695 9,6 C9,4.8954305 8.1045695,4 7,4 Z" id="形状结合"></path>
                            </g>
                        </g>
                    </g>
                </g>
            </g>
        </g>
    </g>
</svg>