<?xml version="1.0" encoding="UTF-8"?>
<svg width="18px" height="18px" viewBox="0 0 18 18" version="1.1" xmlns="http://www.w3.org/2000/svg" xmlns:xlink="http://www.w3.org/1999/xlink">
    <title>切片</title>
    <g id="页面" stroke="none" stroke-width="1" fill="none" fill-rule="evenodd" opacity="0.699999988">
        <g id="02导航菜单" transform="translate(-111.000000, -4255.000000)">
            <g id="二层菜单" transform="translate(79.000000, 3616.000000)">
                <g id="选项-&lt;v0&gt;" transform="translate(0.000000, 80.000000)">
                    <g id="menu/first/arrow/normal备份-3" transform="translate(0.000000, 544.000000)">
                        <g id="icon" transform="translate(32.000000, 15.000000)">
                            <rect id="透明层" fill-rule="nonzero" x="0" y="0" width="18" height="18"></rect>
                            <path d="M15,2 C15.5522847,2 16,2.44771525 16,3 L16,15 C16,15.5522847 15.5522847,16 15,16 L3,16 C2.44771525,16 2,15.5522847 2,15 L2,3 C2,2.44771525 2.44771525,2 3,2 L15,2 Z M15,3 L3,3 L3,15 L15,15 L15,3 Z M7,5 L7.00070296,8.73308634 C7.58293192,8.93920289 8,9.49463812 8,10.1474848 C8,10.8003315 7.58293192,11.3557668 7.00070296,11.5618833 L7,13 L6,13 L6.00029246,11.5622353 C5.41754351,11.3563997 5,10.8007035 5,10.1474848 C5,9.49426613 5.41754351,8.93856995 6.00029246,8.73273434 L6,5 L7,5 Z M12,5 L12.000703,6.42880605 C12.5829319,6.63492261 13,7.19035784 13,7.84320454 C13,8.49605124 12.5829319,9.05148647 12.000703,9.25760302 L12,13 L11,13 L11.0002925,9.25795502 C10.4175435,9.05211941 10,8.49642323 10,7.84320454 C10,7.18998585 10.4175435,6.63428966 11.0002925,6.42845406 L11,5 L12,5 Z M6.5,9.64748482 C6.22385763,9.64748482 6,9.87134245 6,10.1474848 C6,10.4236272 6.22385763,10.6474848 6.5,10.6474848 C6.77614237,10.6474848 7,10.4236272 7,10.1474848 C7,9.87134245 6.77614237,9.64748482 6.5,9.64748482 Z M11.5,7.34320454 C11.2238576,7.34320454 11,7.56706216 11,7.84320454 C11,8.11934691 11.2238576,8.34320454 11.5,8.34320454 C11.7761424,8.34320454 12,8.11934691 12,7.84320454 C12,7.56706216 11.7761424,7.34320454 11.5,7.34320454 Z" fill="#FFFFFF" transform="translate(9.000000, 9.000000) scale(1, -1) rotate(90.000000) translate(-9.000000, -9.000000) "></path>
                        </g>
                    </g>
                </g>
            </g>
        </g>
    </g>
</svg>