<?xml version="1.0" encoding="UTF-8"?>
<svg width="18px" height="18px" viewBox="0 0 18 18" version="1.1" xmlns="http://www.w3.org/2000/svg" xmlns:xlink="http://www.w3.org/1999/xlink">
    <title>切片</title>
    <g id="页面" stroke="none" stroke-width="1" fill="none" fill-rule="evenodd">
        <g id="03图标" transform="translate(-780.000000, -724.000000)">
            <g id="icon-&lt;h16-&gt;" transform="translate(508.000000, 690.000000)">
                <g id="icon18*18/iisg-icon-nav-ExportModel" transform="translate(272.000000, 34.000000)">
                    <rect id="透明层" fill-rule="nonzero" x="0" y="0" width="18" height="18"></rect>
                    <path d="M14,2 C14.5522847,2 15,2.44771525 15,3 L15,3 L15,14 C15,14.5522847 14.5522847,15 14,15 L14,15 L12,15 L12,16 L11,16 L11,15 L7,15 L7,16 L6,16 L6,15 L4,15 C3.48716416,15 3.06449284,14.6139598 3.00672773,14.1166211 L3,14 L3,3 C3,2.44771525 3.44771525,2 4,2 L4,2 Z M14,3 L4,3 L4,14 L14,14 L14,3 Z M9,9 C10.1045695,9 11,9.8954305 11,11 C11,12.1045695 10.1045695,13 9,13 C7.8954305,13 7,12.1045695 7,11 C7,9.8954305 7.8954305,9 9,9 Z M6.5,9.5 C6.67558042,9.5 6.84411489,9.53016732 7.00070296,9.58560151 C6.41754351,9.79108512 6,10.3467813 6,11 C6,11.6532187 6.41754351,12.2089149 7.00029246,12.4147505 C6.84411489,12.4698327 6.67558042,12.5 6.5,12.5 C5.67157288,12.5 5,11.8284271 5,11 C5,10.1715729 5.67157288,9.5 6.5,9.5 Z M11.500703,9.5 C12.3291301,9.5 13.000703,10.1715729 13.000703,11 C13.000703,11.8284271 12.3291301,12.5 11.500703,12.5 C11.3251225,12.5 11.1565881,12.4698327 11.0004105,12.4147505 C11.5831595,12.2089149 12.000703,11.6532187 12.000703,11 C12.000703,10.3467813 11.5831595,9.79108512 11,9.58560151 C11.1565881,9.53016732 11.3251225,9.5 11.500703,9.5 Z M9,10 C8.44771525,10 8,10.4477153 8,11 C8,11.5522847 8.44771525,12 9,12 C9.55228475,12 10,11.5522847 10,11 C10,10.4477153 9.55228475,10 9,10 Z M12,4 C12.5522847,4 13,4.44771525 13,5 L13,5 L13,7 C13,7.55228475 12.5522847,8 12,8 L12,8 L6,8 C5.44771525,8 5,7.55228475 5,7 L5,7 L5,5 C5,4.44771525 5.44771525,4 6,4 L6,4 Z M12,5 L6,5 L6,7 L12,7 L12,5 Z" id="形状结合" fill="#FFFFFF"></path>
                </g>
            </g>
        </g>
    </g>
</svg>