<?xml version="1.0" encoding="UTF-8"?>
<svg width="16px" height="16px" viewBox="0 0 16 16" version="1.1" xmlns="http://www.w3.org/2000/svg" xmlns:xlink="http://www.w3.org/1999/xlink">
    <title>icon16*16/iisg-icon-narrow</title>
    <defs>
        <filter id="filter-1">
            <feColorMatrix in="SourceGraphic" type="matrix" values="0 0 0 0 1.000000 0 0 0 0 1.000000 0 0 0 0 1.000000 0 0 0 1.000000 0"></feColorMatrix>
        </filter>
    </defs>
    <g id="页面" stroke="none" stroke-width="1" fill="none" fill-rule="evenodd">
        <g id="03图标" transform="translate(-637.000000, -772.000000)">
            <g id="icon16*16/iisg-icon-narrow" transform="translate(637.000000, 772.000000)" filter="url(#filter-1)">
                <g>
                    <path d="M7.49495045,14.9377999 C9.25010611,14.9377999 10.9499896,14.3213455 12.2965997,13.1874703 L14.9347634,15.8183531 C15.1776001,16.060549 15.5749887,16.060549 15.8178523,15.8183531 C16.0607159,15.5762648 16.0607159,15.1799689 15.8178523,14.9377999 L13.1907646,12.3179089 C14.3497564,10.9638752 14.9900087,9.24662847 14.9900087,7.47436899 C14.9900087,3.35747027 11.6343572,0 7.49495045,0 C3.35567847,0 0,3.3464516 0,7.47436899 C0,11.602367 3.36672753,14.9377999 7.49495045,14.9377999 Z M7.49495045,1.24392755 C10.9389405,1.24392755 13.7316293,4.02891058 13.7426783,7.47436899 C13.7426783,10.9088625 10.9499896,13.6938724 7.49495045,13.6938724 C4.05106819,13.6938724 1.25837943,10.9088625 1.25837943,7.47436899 C1.25837943,4.03995613 4.05106819,1.25494623 7.49495045,1.24392755 Z" id="Fill-1" fill="#000000"></path>
                    <path d="M5.1923294,8.2484075 L10.0460758,8.2484075 C10.3896491,8.2484075 10.6666667,7.97240628 10.6666667,7.63006017 C10.6666667,7.28779494 10.3896491,7.01168588 10.0460758,7.01168588 L5.1923294,7.00063289 C4.84875617,7.00063289 4.57173858,7.27674195 4.57173858,7.61898022 C4.56064597,7.97240628 4.84875617,8.2484075 5.1923294,8.2484075 Z" id="Fill-3" fill="#000000"></path>
                </g>
            </g>
        </g>
    </g>
</svg>