<?xml version="1.0" encoding="UTF-8"?>
<svg width="60px" height="60px" viewBox="0 0 60 60" version="1.1" xmlns="http://www.w3.org/2000/svg" xmlns:xlink="http://www.w3.org/1999/xlink">
    <title>icon60*60/iisg-icon-IOT</title>
    <g id="页面" stroke="none" stroke-width="1" fill="none" fill-rule="evenodd">
        <g id="03图标" transform="translate(-275.000000, -3952.000000)">
            <g id="icon60*60/iisg-icon-IOT" transform="translate(275.000000, 3952.000000)">
                <circle id="椭圆形" fill="#345EF0" fill-rule="nonzero" cx="30" cy="30" r="30"></circle>
                <g id="wulianwangshebei" transform="translate(11.000000, 11.000000)" fill="#FFFFFF">
                    <path d="M27.4915247,13.8181818 C29.5191683,13.8181818 31.1703992,15.4950887 31.1703992,17.5544104 C31.1703992,19.6135171 29.5191683,21.2903703 27.4915247,21.2903703 L27.4915247,21.2903703 L20.7094284,21.2903703 L20.7094284,29.0595844 C22.0131403,29.5197611 23.0463305,30.5687146 23.4992111,31.8927101 L23.4992111,31.8927101 L29.5530893,31.8927101 C30.0950855,30.826506 31.1873861,30.0958015 32.4489217,30.0958015 C34.2438276,30.0958015 35.7001579,31.5746761 35.7001579,33.3974337 C35.7001579,35.2204063 34.2438276,36.6993346 32.4489217,36.6993346 C31.1830468,36.6993346 30.0907461,35.9685763 29.5530893,34.9021572 L29.5530893,34.9021572 L23.4992111,34.9021572 C22.885298,36.6993346 21.2003577,37.9890976 19.227697,37.9890976 C17.2504322,37.9890976 15.5698313,36.6993346 14.9559182,34.9021572 L14.9559182,34.9021572 L8.45328706,34.9021572 C7.91150256,35.9685763 6.81920192,36.6993346 5.55761346,36.6993346 C3.76249587,36.6993346 2.30621849,35.2204063 2.30621849,33.3974337 C2.30621849,31.5746761 3.76249587,30.0958015 5.55761346,30.0958015 C6.8233296,30.0958015 7.91563024,30.826506 8.45328706,31.8927101 L8.45328706,31.8927101 L14.9559182,31.8927101 C15.4090105,30.5687146 16.441989,29.5197611 17.7459656,29.0595844 L17.7459656,29.0595844 L17.7459656,21.2903703 L10.9638163,21.2903703 C8.93596106,21.2903703 7.28494185,19.6135171 7.28494185,17.5544104 C7.28494185,15.4950887 8.93596106,13.8181818 10.9638163,13.8181818 L10.9638163,13.8181818 Z M18.6614938,3.33955086e-13 C21.3141753,3.33955086e-13 23.809307,0.762277139 25.8839163,2.20057574 C27.6564975,3.4306803 28.9870361,5.09401255 29.7053887,6.96104466 C31.8564083,7.42464864 33.8203342,8.55940088 35.3123547,10.2142862 C37.0467308,12.1375226 38.0031882,14.6109435 38.0031882,17.1797168 C38.0031882,19.9735778 36.9022526,22.5986095 34.8957643,24.5825985 C32.902082,26.5534298 30.2666698,27.6363636 27.4695101,27.6363636 L27.4695101,27.6363636 L26.82337,27.6363636 L26.82337,24.6041488 L27.4695101,24.6041488 C29.4843408,24.6041488 31.3887538,23.8203213 32.8213676,22.4038438 C34.2454264,21.0002533 35.0275429,19.1419388 35.0275429,17.1797168 C35.0275429,13.4412667 32.1795847,10.2705447 28.4004089,9.81132656 L28.4004089,9.81132656 L27.4014422,9.69014626 L27.1378319,8.7024023 C26.2705908,5.41466927 22.7042267,3.03221479 18.6614938,3.03221479 C14.563552,3.03221479 10.9886861,5.45360074 10.1596501,8.79331459 L10.1596501,8.79331459 L9.9301003,9.72041426 L9.01206059,9.90673303 C7.56238997,10.2011286 6.23604922,10.9073639 5.18187373,11.9512039 C3.75776178,13.3590179 2.97564529,15.2131089 2.97564529,17.1797168 C2.97564529,21.2730985 6.36788093,24.6041488 10.5336781,24.6041488 L10.5336781,24.6041488 L11.1798182,24.6041488 L11.1798182,27.6363636 L10.5336781,27.6363636 C7.73678404,27.6363636 5.10110622,26.5534298 3.10742387,24.5825985 C1.10529282,22.5986095 8.10018719e-13,19.9693544 8.10018719e-13,17.1797168 C8.10018719e-13,14.3856933 1.10529282,11.7563841 3.10742387,9.77667268 C4.35719489,8.5378505 5.87907805,7.64123541 7.54538628,7.15158687 C8.23823341,5.2283505 9.57722065,3.50875983 11.3797178,2.23945306 C13.4371108,0.796985169 16.0217244,3.33955086e-13 18.6614938,3.33955086e-13 Z" id="形状结合"></path>
                </g>
            </g>
        </g>
    </g>
</svg>