<?xml version="1.0" encoding="UTF-8"?>
<svg width="60px" height="60px" viewBox="0 0 60 60" version="1.1" xmlns="http://www.w3.org/2000/svg" xmlns:xlink="http://www.w3.org/1999/xlink">
    <title>icon60*60/iisg-icon-Carrier</title>
    <g id="页面" stroke="none" stroke-width="1" fill="none" fill-rule="evenodd">
        <g id="03图标" transform="translate(-275.000000, -3852.000000)">
            <g id="icon60*60/iisg-icon-Carrier" transform="translate(275.000000, 3852.000000)">
                <circle id="椭圆形" fill="#345EF0" fill-rule="nonzero" cx="30" cy="30" r="30"></circle>
                <g id="编组-9" transform="translate(11.000000, 10.500000)">
                    <path d="M36.6582387,30.0625 C37.3996271,30.0625 38,30.7019191 38,31.4880369 L38,32.4380826 C38,33.697569 37.5290674,34.9058045 36.6906135,35.7963593 C35.8522184,36.6871014 34.7151644,37.1875 33.5296952,37.1875 L4.47030482,37.1875 C3.28483559,37.1875 2.14760537,36.6871014 1.30938649,35.7963593 C0.470991344,34.9058045 0,33.697569 0,32.4380826 L0,31.4880369 C0,30.7009203 0.600666731,30.0625 1.34176127,30.0625 C2.08262078,30.0625 2.68352254,30.7009203 2.68352254,31.4880369 L2.68352254,32.4380826 C2.68352254,33.4863853 3.48249214,34.3379245 4.47030482,34.3379245 L33.5296952,34.3379245 C34.5163915,34.3379245 35.3178876,33.4876338 35.3178876,32.4380826 L35.3178876,31.4880369 C35.3178876,30.7019191 35.9183193,30.0625 36.6582387,30.0625 Z M19.6077541,0.128615612 L19.75,0.200961894 L32.7403811,7.70096189 C33.1622916,7.94455207 33.4369268,8.375945 33.4833736,8.85499533 L33.4903811,9 L33.4903811,24 C33.4903811,24.4871803 33.2541014,24.9407178 32.862455,25.2204671 L32.7403811,25.2990381 L19.75,32.7990381 C19.3323085,33.0401924 18.827384,33.0643078 18.3922459,32.8713844 L18.25,32.7990381 L5.25961894,25.2990381 C4.83770838,25.0554479 4.56307322,24.624055 4.51662642,24.1450047 L4.50961894,24 L4.50961894,9 C4.50961894,8.51281965 4.7458986,8.05928216 5.13754495,7.77953288 L5.25961894,7.70096189 L18.25,0.200961894 C18.6676915,-0.0401923789 19.172616,-0.0643078062 19.6077541,0.128615612 Z M10.7377344,10.6896386 C10.3165107,11.345761 10.4709544,12.2063439 11.0717837,12.6784441 L11.1896386,12.7622656 L17.641,16.904 L17.6423289,23.5 L17.6491455,23.6620364 C17.8021983,25.4459735 20.4828037,25.4457364 20.6355409,23.6617723 L20.6423289,23.4997347 L20.642,16.885 L26.8336503,12.7470073 L26.9499292,12.6610128 C27.5048947,12.2080402 27.6612595,11.4209687 27.3215849,10.7902611 L27.2470073,10.6663497 L27.1610128,10.5500708 C26.7080402,9.9951053 25.9209687,9.83874052 25.2902611,10.1784151 L25.1663497,10.2529927 L19.124,14.291 L12.8103614,10.2377344 L12.6850871,10.1654695 C12.0057234,9.81569917 11.1589581,10.0335163 10.7377344,10.6896386 Z" id="形状结合" fill="#FFFFFF"></path>
                    <g id="编组-10" transform="translate(4.509619, 0.000000)"></g>
                </g>
            </g>
        </g>
    </g>
</svg>