<?xml version="1.0" encoding="UTF-8"?>
<svg width="16px" height="16px" viewBox="0 0 16 16" version="1.1" xmlns="http://www.w3.org/2000/svg" xmlns:xlink="http://www.w3.org/1999/xlink">
    <title>icon/iisg-icon-warning</title>
    <g id="icon/iisg-icon-warning" stroke="none" stroke-width="1" fill="none" fill-rule="evenodd" opacity="0.7">
        <path d="M8.00002984,4 C10.7903139,4 13.0658557,6.12525206 13.1807156,8.78867572 L13.1852646,9.00003517 L13.1852646,14.5714404 L15.2593545,14.5714404 C15.6684193,14.571498 16,14.8913087 16,15.2857586 C16,15.64732 15.7213801,15.94618 15.3598594,15.9934792 L15.2593545,16 L0.740625618,16 C0.331580655,16 0,15.6801893 0,15.2857586 C0,14.9241795 0.278619856,14.6253181 0.640125275,14.5779745 L0.740625618,14.5714404 L2.81473543,14.5714404 L2.81473543,9.00003517 C2.81473543,6.23857922 5.13625756,4 8.00002984,4 Z M8.15314679,7.06866991 C7.93549422,7.06318135 7.73208829,7.17493396 7.62204803,7.36039575 L6.12769568,9.72138769 C6.01255874,9.90336216 6.0064387,10.1326135 6.11170332,10.3202351 C6.21696795,10.5079161 6.41708311,10.6244043 6.63427417,10.6244836 L8.24516806,10.6244836 L7.32316954,12.0823796 C7.20247439,12.2612631 7.18977281,12.4908315 7.29002101,12.6816035 C7.39026921,12.8724746 7.58763537,12.9943127 7.80528794,12.9998012 C8.02288031,13.0053691 8.22636651,12.8936164 8.3363265,12.7080754 L9.83067885,10.3470835 C9.9458158,10.1651882 9.95193584,9.93585761 9.84667121,9.74823606 C9.74140658,9.56055507 9.54137169,9.44406684 9.32410037,9.44398759 L7.71320647,9.44398759 L8.635205,7.98609151 C8.75598041,7.80722788 8.76868199,7.57765948 8.66843379,7.38686765 C8.56810532,7.19607582 8.37073917,7.07415847 8.15314679,7.06866991 Z M14.9592693,4.22617082 C15.1074143,4.06480322 15.3334544,3.99707796 15.5474349,4.0499425 C15.7614154,4.10286647 15.9285225,4.26782047 15.9820578,4.47912009 C16.0356733,4.69041972 15.9670888,4.91362773 15.8035935,5.05991666 L15.8035935,5.05991666 L14.7470947,6.10319865 C14.6351482,6.21441628 14.4830101,6.27702945 14.3242102,6.27734647 C14.0825591,6.27687093 13.8649867,6.13284083 13.7727247,5.91232756 C13.6804626,5.69173503 13.7318107,5.43809226 13.9027504,5.269433 L13.9027504,5.269433 Z M0.17508748,4.24622289 C0.400425212,4.02368856 0.762952086,4.0148712 0.999105226,4.22617082 L0.999105226,4.22617082 L2.05562416,5.269433 C2.26960471,5.50264723 2.26065541,5.86061226 2.03531767,6.08314658 C1.80995988,6.3056611 1.44745307,6.31449827 1.21127986,6.10319865 L1.21127986,6.10319865 L0.154780999,5.05991666 C-0.0591995504,4.82672224 -0.0502703171,4.4687374 0.17508748,4.24622289 Z M7.97921737,-4.02566869e-13 C8.30929801,-4.02566869e-13 8.57697436,0.264243417 8.57697436,0.590247986 L8.57697436,0.590247986 L8.57697436,2.06587786 C8.57697436,2.39188243 8.30929801,2.65612584 7.97921737,2.65612584 C7.64907652,2.65612584 7.38148044,2.39188243 7.38148044,2.06587786 L7.38148044,2.06587786 L7.38148044,0.590247986 C7.38148044,0.264243417 7.64907652,-4.02566869e-13 7.97921737,-4.02566869e-13 Z" id="形状结合" fill="#4B5869"></path>
    </g>
</svg>