<?xml version="1.0" encoding="UTF-8"?>
<svg width="16px" height="16px" viewBox="0 0 16 16" version="1.1" xmlns="http://www.w3.org/2000/svg" xmlns:xlink="http://www.w3.org/1999/xlink">
    <title>icon/iisg-icon-exitfullscreen-page</title>
    <g id="页面" stroke="none" stroke-width="1" fill="none" fill-rule="evenodd" opacity="0.7">
        <g id="03图标" transform="translate(-1410.000000, -698.000000)">
            <g id="icon/iisg-icon-exitfullscreen-page" transform="translate(1410.000000, 698.000000)">
                <rect id="矩形" fill="#FFFFFF" opacity="0" x="0" y="0" width="16" height="16"></rect>
                <path d="M3.50092535,11 L3.64538536,11.0068666 C4.40603726,11.0795513 5.00092535,11.7203039 5.00092535,12.5 L5.00092535,12.5 L5.00092535,15.5 L4.99286968,15.5898756 C4.95053372,15.8231248 4.74638523,16 4.50092535,16 C4.22478297,16 4.00092535,15.7761424 4.00092535,15.5 L4.00092535,15.5 L4.00092535,12.5 L3.99286968,12.4101244 C3.95053372,12.1768752 3.74638523,12 3.50092535,12 L3.50092535,12 L0.5,12 L0.410124368,11.9919443 C0.176875161,11.9496084 -3.69482223e-13,11.7454599 -3.69482223e-13,11.5 C-3.69482223e-13,11.2238576 0.223857625,11 0.5,11 L0.5,11 L3.50092535,11 Z M15.5009253,11 C15.7770677,11 16.0009253,11.2238576 16.0009253,11.5 C16.0009253,11.7454599 15.8240502,11.9496084 15.590801,11.9919443 L15.5009253,12 L12.5,12 C12.2545401,12 12.0503916,12.1768752 12.0080557,12.4101244 L12,12.5 L12,15.5 C12,15.7761424 11.7761424,16 11.5,16 C11.2545401,16 11.0503916,15.8231248 11.0080557,15.5898756 L11,15.5 L11,12.5 C11,11.7203039 11.5948881,11.0795513 12.35554,11.0068666 L12.5,11 L15.5009253,11 Z M10,5 C10.5522847,5 11,5.44771525 11,6 L11,10 C11,10.5522847 10.5522847,11 10,11 L6,11 C5.44771525,11 5,10.5522847 5,10 L5,6 C5,5.44771525 5.44771525,5 6,5 L10,5 Z M4.50092535,0 C4.74638523,0 4.95053372,0.176875161 4.99286968,0.410124368 L5.00092535,0.5 L5.00092535,3.5 C5.00092535,4.27969612 4.40603726,4.92044868 3.64538536,4.99313342 L3.50092535,5 L0.5,5 C0.223857625,5 -3.69482223e-13,4.77614237 -3.69482223e-13,4.5 C-3.69482223e-13,4.25454011 0.176875161,4.05039163 0.410124368,4.00805567 L0.5,4 L3.50092535,4 C3.74638523,4 3.95053372,3.82312484 3.99286968,3.58987563 L4.00092535,3.5 L4.00092535,0.5 C4.00092535,0.223857625 4.22478297,0 4.50092535,0 Z M11.5,0 C11.7761424,0 12,0.223857625 12,0.5 L12,0.5 L12,3.5 L12.0080557,3.58987563 C12.0503916,3.82312484 12.2545401,4 12.5,4 L12.5,4 L15.5009253,4 L15.590801,4.00805567 C15.8240502,4.05039163 16.0009253,4.25454011 16.0009253,4.5 C16.0009253,4.77614237 15.7770677,5 15.5009253,5 L15.5009253,5 L12.5,5 L12.35554,4.99313342 C11.5948881,4.92044868 11,4.27969612 11,3.5 L11,3.5 L11,0.5 L11.0080557,0.410124368 C11.0503916,0.176875161 11.2545401,0 11.5,0 Z" id="形状结合" fill="#4B5869"></path>
            </g>
        </g>
    </g>
</svg>