<?xml version="1.0" encoding="UTF-8"?>
<svg width="16px" height="16px" viewBox="0 0 16 16" version="1.1" xmlns="http://www.w3.org/2000/svg" xmlns:xlink="http://www.w3.org/1999/xlink">
    <title>icon/iisg-icon-fullscreen-page</title>
    <g id="页面" stroke="none" stroke-width="1" fill="none" fill-rule="evenodd" opacity="0.7">
        <g id="03图标" transform="translate(-1370.000000, -698.000000)">
            <g id="icon/iisg-icon-fullscreen-page" transform="translate(1370.000000, 698.000000)">
                <rect id="矩形" fill="#FFFFFF" opacity="0" x="0" y="0" width="16" height="16"></rect>
                <path d="M0.5,11 C0.776142375,11 1,11.2238576 1,11.5 L1,11.5 L1,14.5 L1.00805567,14.5898756 C1.05039163,14.8231248 1.25454011,15 1.5,15 L1.5,15 L4.50092535,15 L4.59080098,15.0080557 C4.82405018,15.0503916 5.00092535,15.2545401 5.00092535,15.5 C5.00092535,15.7761424 4.77706772,16 4.50092535,16 L4.50092535,16 L1.5,16 L1.35553999,15.9931334 C0.594888083,15.9204487 -3.69482223e-13,15.2796961 -3.69482223e-13,14.5 L-3.69482223e-13,14.5 L-3.69482223e-13,11.5 L0.00805566941,11.4101244 C0.0503916296,11.1768752 0.254540111,11 0.5,11 Z M15.5009253,11 C15.7463852,11 15.9505337,11.1768752 15.9928697,11.4101244 L16.0009253,11.5 L16.0009253,14.5 C16.0009253,15.2796961 15.4060373,15.9204487 14.6453854,15.9931334 L14.5009253,16 L11.5,16 C11.2238576,16 11,15.7761424 11,15.5 C11,15.2545401 11.1768752,15.0503916 11.4101244,15.0080557 L11.5,15 L14.5009253,15 C14.7463852,15 14.9505337,14.8231248 14.9928697,14.5898756 L15.0009253,14.5 L15.0009253,11.5 C15.0009253,11.2238576 15.224783,11 15.5009253,11 Z M11,4 C11.5522847,4 12,4.44771525 12,5 L12,11 C12,11.5522847 11.5522847,12 11,12 L5,12 C4.44771525,12 4,11.5522847 4,11 L4,5 C4,4.44771525 4.44771525,4 5,4 L11,4 Z M4.50092535,0 C4.77706772,0 5.00092535,0.223857625 5.00092535,0.5 C5.00092535,0.745459889 4.82405018,0.94960837 4.59080098,0.991944331 L4.50092535,1 L1.5,1 C1.25454011,1 1.05039163,1.17687516 1.00805567,1.41012437 L1,1.5 L1,4.5 C1,4.77614237 0.776142375,5 0.5,5 C0.254540111,5 0.0503916296,4.82312484 0.00805566941,4.58987563 L-3.69482223e-13,4.5 L-3.69482223e-13,1.5 C-3.69482223e-13,0.720303883 0.594888083,0.0795513218 1.35553999,0.00686657806 L1.5,0 L4.50092535,0 Z M14.5009253,0 L14.6453854,0.00686657806 C15.4060373,0.0795513218 16.0009253,0.720303883 16.0009253,1.5 L16.0009253,1.5 L16.0009253,4.5 L15.9928697,4.58987563 C15.9505337,4.82312484 15.7463852,5 15.5009253,5 C15.224783,5 15.0009253,4.77614237 15.0009253,4.5 L15.0009253,4.5 L15.0009253,1.5 L14.9928697,1.41012437 C14.9505337,1.17687516 14.7463852,1 14.5009253,1 L14.5009253,1 L11.5,1 L11.4101244,0.991944331 C11.1768752,0.94960837 11,0.745459889 11,0.5 C11,0.223857625 11.2238576,0 11.5,0 L11.5,0 L14.5009253,0 Z" id="形状结合" fill="#4B5869"></path>
            </g>
        </g>
    </g>
</svg>