<?xml version="1.0" encoding="UTF-8"?>
<svg width="16px" height="16px" viewBox="0 0 16 16" version="1.1" xmlns="http://www.w3.org/2000/svg" xmlns:xlink="http://www.w3.org/1999/xlink">
    <title>icon/iisg-icon-v</title>
    <g id="icon/iisg-icon-v" stroke="none" stroke-width="1" fill="none" fill-rule="evenodd">
        <rect id="矩形" fill="#FFFFFF" opacity="0" x="0" y="0" width="16" height="16"></rect>
        <path d="M10.7124293,2.0016817 C11.9502372,2.04798176 12.9583281,3.04475161 13,4.30069688 L13,4.30069688 L13,13.6992261 C12.9565163,15.0097582 11.8607502,16.0381856 10.5497339,15.9989116 L3.28634713,15.9983167 C2.04859231,15.9519935 1.04051854,14.9551527 0.998827932,13.6992261 L0.998827932,13.6992261 L0.998827932,4.30069688 C1.04233118,2.9901453 2.13807771,1.96179606 3.4490354,2.00108956 Z M10.5497339,4.00072262 L3.4490354,4.00072262 C3.18905126,4.00072262 2.99905909,4.16070889 2.99905909,4.30069688 L2.99905909,4.30069688 L2.99905909,13.6992261 C2.99905909,13.8392141 3.18905126,13.9991809 3.4490354,13.9991809 L3.4490354,13.9991809 L10.5497339,13.9991809 C10.8097767,13.9991809 10.9997884,13.8392141 10.9997884,13.6992261 L10.9997884,13.6992261 L10.9997884,4.30069688 C10.9997884,4.16070889 10.8097767,4.00072262 10.5497339,4.00072262 L10.5497339,4.00072262 Z M12.5700227,0 C13.9120516,0 15,1.08794465 15,2.42996897 L15,2.42996897 L15,12.5 C15,12.7761372 14.7761364,13 14.5,13 C14.2238902,13 14.0000266,12.7761372 14.0000266,12.5 L14.0000266,12.5 L14.0000266,2.42996897 C14.0000266,2.05076365 13.8493323,1.68704765 13.5812078,1.41886546 C13.3130247,1.15066373 12.9493075,0.99996995 12.5700227,0.99996995 L12.5700227,0.99996995 L4.5,0.99996995 C4.22386356,0.99996995 4,0.776107159 4,0.5 C4,0.223862791 4.22386356,0 4.5,0 L4.5,0 Z M8.99914294,11.5001738 C9.27524652,11.5001738 9.49902299,11.7239263 9.49902299,12.0000771 C9.49902299,12.2761694 9.27524652,12.5 8.99914294,12.5 L8.99914294,12.5 L5.00070777,12.5 C4.72468229,12.5 4.50092535,12.2761694 4.50092535,12.0000771 C4.50092535,11.7239263 4.72468229,11.5001738 5.00070777,11.5001738 L5.00070777,11.5001738 Z M8.54938366,5.78092178 C8.67080988,5.53244461 8.97069496,5.42954229 9.21911203,5.55099788 C9.46752911,5.67243395 9.57048464,5.97241111 9.44898032,6.22086875 L9.44898032,6.22086875 L7.44981155,10.2202908 C7.36628343,10.3927776 7.19155385,10.5023201 6.99997417,10.5023201 C6.80837496,10.5023201 6.63364538,10.3927776 6.55013679,10.2202908 L6.55013679,10.2202908 L4.5508704,6.22086875 C4.47232116,6.0601388 4.48544199,5.86972361 4.58535161,5.72125835 C4.68526124,5.57281263 4.85671061,5.48897135 5.03518899,5.50125557 C5.21364785,5.51361791 5.37199592,5.62019183 5.45054515,5.78092178 L5.45054515,5.78092178 L6.99997417,8.88050998 Z" id="形状结合" fill="#4B5869" opacity="0.7"></path>
    </g>
</svg>