<?xml version="1.0" encoding="UTF-8"?>
<svg width="32px" height="32px" viewBox="0 0 32 32" version="1.1" xmlns="http://www.w3.org/2000/svg" xmlns:xlink="http://www.w3.org/1999/xlink">
    <title>icon/gsd-icon-avatar-lager copy</title>
    <g id="控件" stroke="none" stroke-width="1" fill="none" fill-rule="evenodd">
        <g id="icon/gsd-icon-avatar-lager-copy" fill="#345EF0">
            <path d="M15.8072498,7.3253012 C12.8262851,7.3253012 10.4096386,9.74194776 10.4096386,12.7229125 C10.4096386,15.7038772 12.8262851,18.1204819 15.8072498,18.1204819 C18.7882146,18.1204819 21.2048193,15.7038772 21.2048193,12.7229125 C21.2048193,9.74194776 18.7882146,7.3253012 15.8072498,7.3253012 Z M16.0018645,20.4337349 C10.3082553,20.4337349 7.0502451,22.4494307 6.55421687,26.2580656 C11.8527655,31.343697 20.1472755,31.343697 25.4457831,26.2580656 C24.9534428,22.4494307 21.6954327,20.4337349 16.0018645,20.4337349 Z M16.0018692,32 C9.55879659,32.0014472 3.74362544,28.1369851 1.2485616,22.1959857 C-1.24633681,16.2547795 0.0655857215,9.39657318 4.57739494,4.79618652 C7.49941361,1.80016749 11.4845597,0.0768888741 15.6687502,-8.70414851e-14 L16.0018692,-8.70414851e-14 C22.4442802,-8.70414851e-14 28.2579626,3.86508252 30.7520752,9.80595783 C33.2461465,15.7466677 31.9339345,22.6039227 27.422787,27.2038131 C24.5018849,30.1983845 20.518972,31.9214563 16.3368907,32 L16.0018692,32 Z" id="yonghu"></path>
        </g>
    </g>
</svg>