<?xml version="1.0" encoding="UTF-8"?>
<svg width="60px" height="60px" viewBox="0 0 60 60" version="1.1" xmlns="http://www.w3.org/2000/svg" xmlns:xlink="http://www.w3.org/1999/xlink">
    <title>icon60*60/iisg-icon-SupportingFacilities</title>
    <g id="页面" stroke="none" stroke-width="1" fill="none" fill-rule="evenodd">
        <g id="03图标" transform="translate(-275.000000, -4052.000000)">
            <g id="icon60*60/iisg-icon-SupportingFacilities" transform="translate(275.000000, 4052.000000)">
                <circle id="椭圆形" fill="#345EF0" fill-rule="nonzero" cx="30" cy="30" r="30"></circle>
                <path d="M37.7496727,27.6080816 L30.3753008,23.4493408 C30.1393795,23.3299391 29.8607364,23.3299391 29.6248151,23.4493408 L22.2504432,27.6080816 C22.0201347,27.7157008 21.8735536,27.9474532 21.8751638,28.2017036 L21.8751638,44.0077205 C21.8751638,44.3639772 22.1245041,44.720234 22.3740166,44.9577848 L29.3754882,48.8813405 C29.498876,49 29.7507542,49 29.874142,49 C30.1259738,49 30.2494081,49 30.3729815,48.8813405 L37.3744066,44.9601042 C37.7496727,44.7225533 37.9989996,44.366343 37.8730605,44.0100863 L37.8730605,28.1993379 C38.1249387,27.9619725 37.9989996,27.7244217 37.7496727,27.6057158 L37.7496727,27.6080816 Z M28.874283,46.0288744 L24.0008343,43.2976192 L24.0008343,29.8642351 L28.874283,32.5956759 L28.874283,46.0288744 Z M35.8757546,43.2976192 L30.9998938,46.0288744 L30.9998938,32.6003611 L35.8757546,29.86674 L35.8757546,43.2976192 Z M22.2504432,16.4334024 L29.6248151,20.5945089 C29.7507542,20.5945089 29.874142,20.7131684 30.0000811,20.7131684 C30.1259738,20.7131684 30.2494081,20.7131684 30.3753008,20.5945089 L37.7496727,16.4334024 C37.9799812,16.3257368 38.1265622,16.0937988 38.1249521,15.8395947 C38.1249521,15.6022294 37.9989996,15.3646785 37.7496727,15.2459727 L30.3753008,11.0895513 C30.1393795,10.9701496 29.8607364,10.9701496 29.6248151,11.0895513 L22.2504432,15.2459727 C22.0194389,15.353963 21.8726723,15.5870143 21.8751456,15.8421461 C21.8751456,16.0795114 22.0011163,16.3170623 22.2504432,16.4357217 L22.2504432,16.4334024 Z M27.249831,22.0194895 C27.249831,21.7820778 27.1239383,21.5445269 26.8746114,21.4258674 L19.5026052,17.269446 C19.2666839,17.1500443 18.9879944,17.1500443 18.7520731,17.269446 L11.3753819,21.4258674 C11.1434499,21.5340433 10.9966833,21.7683007 11.0000569,22.0243602 L11.0000569,37.8301915 C11.0000569,38.1864482 11.2496284,38.542705 11.4989553,38.7802559 L18.5003805,42.7038115 C18.6263196,42.822471 18.8756465,42.822471 18.9990344,42.822471 C19.2509126,42.822471 19.3743004,42.822471 19.4978738,42.7038115 L19.9990789,42.3475548 L19.9990789,26.4205127 L26.6276038,22.7321421 C27.0028698,22.4945913 27.2521967,22.2570404 27.2521967,22.0194895 L27.249831,22.0194895 Z M17.9992217,39.8466139 L13.1257266,37.1153586 L13.1257266,23.6845259 L17.9992217,26.4157812 L17.9992217,39.8466139 Z M49,21.9031494 C48.8740609,21.6655985 48.7504875,21.5468927 48.624734,21.4281868 L41.7490623,17.5069969 L41.2504085,17.269446 L41.1244694,17.1507402 C41.000896,17.1507402 40.7492033,17.1507402 40.6258155,17.269446 L33.2491243,21.4258674 L32.8761776,21.7844436 L32.8761776,22.0218089 C32.8761776,22.2593598 32.9996118,22.4969106 33.2491243,22.6156165 L39.8752834,26.3018069 L39.8752834,42.345189 L40.3739373,42.7014458 C40.4998764,42.8201516 40.7492033,42.8201516 40.8727767,42.8201516 C41.000896,42.8201516 41.2504085,42.8201516 41.3737963,42.7014458 L48.3752215,38.7802559 C48.7504875,38.542705 48.8740609,38.1864482 48.8740609,37.8301915 L48.8740609,22.0194895 C49,22.0194895 49,21.9007836 49,21.9007836 L49,21.9031494 Z M46.8743893,37.2340645 L42.0008941,39.9676392 L42.0008941,26.4205127 L46.8743893,23.6868917 L46.8743893,37.2340645 Z" id="Fill-1" fill="#FFFFFF"></path>
            </g>
        </g>
    </g>
</svg>