<svg id="图层_1" data-name="图层 1" xmlns="http://www.w3.org/2000/svg" viewBox="0 0 19.89 19.89"><defs><style>.cls-1{fill:#245bf9;}</style></defs><path class="cls-1" d="M10,3.67A.68.68,0,0,1,9.35,3V.73a.68.68,0,0,1,1.36,0V3a.68.68,0,0,1-.68.68Z" transform="translate(-0.05 -0.05)"/><path class="cls-1" d="M10,20a.69.69,0,0,1-.68-.68V17a.68.68,0,0,1,1.36,0v2.26A.69.69,0,0,1,10,20Z" transform="translate(-0.05 -0.05)"/><path class="cls-1" d="M20,10a.69.69,0,0,1-.68.68H17a.68.68,0,1,1,0-1.36h2.26A.68.68,0,0,1,20,10Z" transform="translate(-0.05 -0.05)"/><path class="cls-1" d="M5.45,14.49a.67.67,0,0,1,0,1l-1.6,1.6a.68.68,0,0,1-1-1l1.59-1.6a.69.69,0,0,1,1,0Z" transform="translate(-0.05 -0.05)"/><path class="cls-1" d="M17.05,2.89a.69.69,0,0,1,0,1l-1.6,1.6a.67.67,0,0,1-1.15-.29.69.69,0,0,1,.19-.67l1.6-1.6a.7.7,0,0,1,1,0Z" transform="translate(-0.05 -0.05)"/><path class="cls-1" d="M14.55,14.49a.67.67,0,0,0,0,1l1.6,1.6a.68.68,0,0,0,1-1l-1.59-1.6a.69.69,0,0,0-1,0Z" transform="translate(-0.05 -0.05)"/><path class="cls-1" d="M3,2.89a.69.69,0,0,0,0,1l1.6,1.6a.68.68,0,0,0,1-1l-1.6-1.6a.7.7,0,0,0-1,0Z" transform="translate(-0.05 -0.05)"/><path class="cls-1" d="M3.67,10a.68.68,0,0,1-.68.68H.73a.68.68,0,0,1,0-1.36H3a.67.67,0,0,1,.68.68Z" transform="translate(-0.05 -0.05)"/><path class="cls-1" d="M4.58,10A5.42,5.42,0,1,0,10,4.58,5.41,5.41,0,0,0,4.58,10Z" transform="translate(-0.05 -0.05)"/></svg>