<?xml version="1.0" encoding="UTF-8"?>
<svg width="14px" height="14px" viewBox="0 0 14 14" version="1.1" xmlns="http://www.w3.org/2000/svg" xmlns:xlink="http://www.w3.org/1999/xlink">
    <title>detail copy</title>
    <g id="控件" stroke="none" stroke-width="1" fill="none" fill-rule="evenodd">
        <g id="表单/必填/标签/详情" transform="translate(-104.000000, -4.000000)" fill="#999EB1" fill-rule="nonzero">
            <g id="icon" transform="translate(104.000000, 4.000000)">
                <path d="M7,0 C10.8659932,0 14,3.13400675 14,7 C14,10.8659932 10.8659932,14 7,14 C3.13400675,14 0,10.8659932 0,7 C0,3.13400675 3.13400675,0 7,0 Z M7,1 C3.6862915,1 1,3.6862915 1,7 C1,10.3137085 3.6862915,13 7,13 C10.3137085,13 13,10.3137085 13,7 C13,3.6862915 10.3137085,1 7,1 Z M7.536,5.27971134 C7.72880034,5.27971134 7.8765538,5.31895835 7.98332378,5.40631561 C8.09702806,5.49934638 8.156,5.62498227 8.156,5.77971134 C8.156,5.95089042 7.9810518,6.6012861 7.63971303,7.70467713 C7.08403711,9.54082364 6.99870201,9.89956102 6.99870201,10.256 C6.99870201,10.310845 7.01017477,10.3503623 7.03152414,10.3759816 C7.05425462,10.4032581 7.0688244,10.412 7.07470201,10.412 C7.20373872,10.412 7.63285192,10.0946558 8.29505203,9.48635572 L8.43246368,9.48835288 L8.73646368,9.78435288 L8.73446135,9.92954367 C8.00096899,10.6053456 7.48560086,11.0220208 7.14718138,11.2074643 C6.80272012,11.4006463 6.51724484,11.5 6.29070201,11.5 C6.08206652,11.5 5.91208056,11.4347999 5.77742266,11.3000451 C5.65400207,11.1671306 5.59070201,10.9819193 5.59070201,10.76 C5.59070201,10.1014594 5.80192108,9.23356601 6.59313167,6.74008857 C6.62775719,6.63621201 6.644,6.54236465 6.644,6.45971134 C6.644,6.41104716 6.64079762,6.40771134 6.6,6.40771134 C6.51608998,6.40771134 6.41256887,6.44221838 6.29070201,6.51390476 C6.17077009,6.58445295 5.89666838,6.8254417 5.41280916,7.28427373 L5.28311812,7.29104227 L4.93911812,7.02704227 L4.9267574,6.87962667 C5.46430552,6.30135521 5.94333741,5.89679467 6.38343571,5.65229561 C6.8290145,5.40475184 7.21247203,5.27971134 7.536,5.27971134 Z M8.34006852,2.81071068 C8.52477084,2.81071068 8.68677522,2.87599603 8.81077919,3 C8.93557902,3.12479983 9.00006852,3.28721781 9.00000005,3.48241184 C8.99098063,3.72593487 8.89921885,3.947506 8.72606252,4.13797796 C8.55010497,4.33153127 8.34841527,4.42671068 8.11606852,4.42671068 C7.93291825,4.42671068 7.77850718,4.36257069 7.65335784,4.23742136 C7.52880902,4.11287254 7.46406852,3.94262899 7.46406852,3.74271068 C7.46406852,3.48224431 7.54774284,3.26645264 7.72356857,3.08183573 C7.89352074,2.90293872 8.10333953,2.81071068 8.34006852,2.81071068 Z"></path>
            </g>
        </g>
    </g>
</svg>