<?xml version="1.0" encoding="UTF-8"?>
<svg width="40px" height="42px" viewBox="0 0 40 42" version="1.1" xmlns="http://www.w3.org/2000/svg" xmlns:xlink="http://www.w3.org/1999/xlink">
    <title>shexiangtou</title>
    <defs>
        <filter id="filter-1">
            <feColorMatrix in="SourceGraphic" type="matrix" values="0 0 0 0 0.600000 0 0 0 0 0.619608 0 0 0 0 0.694118 0 0 0 1.000000 0"></feColorMatrix>
        </filter>
    </defs>
    <g id="页面" stroke="none" stroke-width="1" fill="none" fill-rule="evenodd">
        <g id="shexiangtou" transform="translate(-1242.000000, -794.000000)" filter="url(#filter-1)">
            <g transform="translate(1242.000000, 794.000000)">
                <path d="M3.27823718,29.7082018 C4.11795237,29.2418565 5.11741159,29.5808587 5.59732693,30.4285814 C6.07690064,31.3187518 5.79724611,32.463029 4.95759924,32.971822 C3.79819101,33.6500436 3.51819485,34.1584744 3.51819485,34.2433698 C3.59827184,35.387647 9.47532163,38.270107 19.9498292,38.270107 C30.584559,38.270107 36.3017282,35.4725424 36.4217753,34.2433698 C36.3817368,34.1163164 36.101809,33.6075959 34.9023623,32.9293743 C34.1828309,32.463029 33.9028347,31.4882529 34.2228694,30.6405302 C34.6226394,29.7082018 35.6622054,29.2418565 36.5416175,29.6657541 C39.340281,31.2338564 39.9,33.0141972 39.9,34.2433698 C39.9,39.5838852 29.5452663,42 19.9498292,42 C10.3547337,42 0,39.5838852 0,34.2433698 C0,33.0141972 0.599689198,31.2338564 3.27823718,29.7082018 Z M20.0844636,0 C29.4406979,0 37.079298,8.04983098 37.079298,17.9717172 C37.079298,27.8936673 29.4772991,35.9437542 20.0844636,35.9437542 C10.7284792,35.9437542 3.0899415,27.8936673 3.0899415,17.9717172 C3.0899415,8.04983098 10.7284792,0 20.0844636,0 Z M20.0844636,3.14513209 C12.3729733,3.14513209 6.12334587,9.80971772 6.12334587,18.0092133 C6.12334587,26.1715327 12.3729733,32.8361183 20.0844636,32.8733585 C27.7962662,32.8733585 34.0458937,26.2090288 34.0458937,18.0092133 C34.0458937,9.80971772 27.7962662,3.14513209 20.0844636,3.14513209 Z M19.3119823,7.81385962 C23.5490991,7.85166289 26.9673673,11.4753584 26.9673673,15.9296294 C26.9673673,20.4217036 23.5490991,24.0456571 19.3119823,24.0456571 C15.0751089,24.0456571 11.6569014,20.4217036 11.6569014,15.9296294 C11.6569014,11.4378132 15.0751089,7.81385962 19.3119823,7.81385962 Z M16.6774525,9.32379727 C14.9327824,9.32379727 13.543898,10.7959962 13.543898,12.6456472 C13.543898,14.4952983 14.9327824,15.9674326 16.6774525,15.9674326 C18.3864041,15.9674326 19.8107028,14.457495 19.8107028,12.6456472 C19.8107028,10.7959962 18.4220618,9.32379727 16.6774525,9.32379727 Z" id="形状结合" fill="#345EF0"></path>
            </g>
        </g>
    </g>
</svg>