<?xml version="1.0" encoding="UTF-8"?>
<svg width="12px" height="14px" viewBox="0 0 12 14" version="1.1" xmlns="http://www.w3.org/2000/svg" xmlns:xlink="http://www.w3.org/1999/xlink">
    <title>密码</title>
    <defs>
        <polygon id="path-1" points="0 0 14 0 14 14 0 14"></polygon>
    </defs>
    <g id="页面-1" stroke="none" stroke-width="1" fill="none" fill-rule="evenodd" opacity="0.7">
        <g id="0-1登录-账号登录-白底半透明" transform="translate(-777.000000, -660.000000)">
            <g id="登录" transform="translate(-1.192675, 0.000000)">
                <g id="编组-5" transform="translate(761.192675, 577.000000)">
                    <g id="input" transform="translate(0.000000, 68.000000)">
                        <g id="密码" transform="translate(16.000000, 15.000000)">
                            <mask id="mask-2" fill="white">
                                <use xlink:href="#path-1"></use>
                            </mask>
                            <g id="Clip-2"></g>
                            <path d="M7,-1.77635684e-15 C9.209139,-1.77635684e-15 11,1.790861 11,4 L11,5 L12,5 C12.5522847,5 13,5.44771525 13,6 L13,13 C13,13.5522847 12.5522847,14 12,14 L2,14 C1.44771525,14 1,13.5522847 1,13 L1,6 C1,5.44771525 1.44771525,5 2,5 L3,5 L3,4 C3,1.790861 4.790861,-1.77635684e-15 7,-1.77635684e-15 Z M11.7,6.3 L2.3,6.3 L2.3,12.7 L11.7,12.7 L11.7,6.3 Z M7,8 C7.35898509,8 7.65,8.29101491 7.65,8.65 L7.65,10.35 C7.65,10.7089851 7.35898509,11 7,11 C6.64101491,11 6.35,10.7089851 6.35,10.35 L6.35,8.65 C6.35,8.29101491 6.64101491,8 7,8 Z M7,1.3 C5.56618382,1.3 4.39340467,2.41763237 4.30531192,3.82924775 L4.3,4 L4.3,5 L9.7,5 L9.7,4 C9.7,2.56618382 8.58236763,1.39340467 7.17075225,1.30531192 L7,1.3 Z" id="形状结合" fill="#FFFFFF" mask="url(#mask-2)"></path>
                        </g>
                    </g>
                </g>
            </g>
        </g>
    </g>
</svg>