<?xml version="1.0" encoding="UTF-8"?>
<svg width="12px" height="14px" viewBox="0 0 12 14" version="1.1" xmlns="http://www.w3.org/2000/svg" xmlns:xlink="http://www.w3.org/1999/xlink">
    <title>手机号</title>
    <defs>
        <polygon id="path-1" points="0 0 14 0 14 14 0 14"></polygon>
    </defs>
    <g id="页面-1" stroke="none" stroke-width="1" fill="none" fill-rule="evenodd" opacity="0.7">
        <g id="0-2登录-手机号登录-白底半透明" transform="translate(-777.000000, -592.000000)">
            <g id="编组-5" transform="translate(760.000000, 577.000000)">
                <g id="手机号" transform="translate(16.000000, 15.000000)">
                    <mask id="mask-2" fill="white">
                        <use xlink:href="#path-1"></use>
                    </mask>
                    <g id="Clip-2"></g>
                    <path d="M11,0 C12.1045695,0 13,0.8954305 13,2 L13,12 C13,13.1045695 12.1045695,14 11,14 L3,14 C1.8954305,14 1,13.1045695 1,12 L1,2 C1,0.8954305 1.8954305,0 3,0 L11,0 Z M11.7,10.691 L2.299,10.691 L2.3,12 C2.3,12.3543827 2.56334362,12.6472582 2.90501415,12.6936098 L3,12.7 L11,12.7 C11.3543827,12.7 11.6472582,12.4366564 11.6936098,12.0949859 L11.7,12 L11.7,10.691 Z M11,1.3 L3,1.3 C2.64561729,1.3 2.35274177,1.56334362 2.30639017,1.90501415 L2.3,2 L2.299,9.391 L11.7,9.391 L11.7,2 C11.7,1.64561729 11.4366564,1.35274177 11.0949859,1.30639017 L11,1.3 Z M5,3 C5.35898509,3 5.65,3.29101491 5.65,3.65 C5.65,4.00898509 5.35898509,4.3 5,4.3 C4.64101491,4.3 4.35,4.00898509 4.35,3.65 C4.35,3.29101491 4.64101491,3 5,3 Z M7,3 C7.35898509,3 7.65,3.29101491 7.65,3.65 C7.65,4.00898509 7.35898509,4.3 7,4.3 C6.64101491,4.3 6.35,4.00898509 6.35,3.65 C6.35,3.29101491 6.64101491,3 7,3 Z M9,3 C9.35898509,3 9.65,3.29101491 9.65,3.65 C9.65,4.00898509 9.35898509,4.3 9,4.3 C8.64101491,4.3 8.35,4.00898509 8.35,3.65 C8.35,3.29101491 8.64101491,3 9,3 Z" id="形状结合" fill="#FFFFFF" mask="url(#mask-2)"></path>
                </g>
            </g>
        </g>
    </g>
</svg>