<?xml version="1.0" encoding="UTF-8"?>
<svg width="12px" height="14px" viewBox="0 0 12 14" version="1.1" xmlns="http://www.w3.org/2000/svg" xmlns:xlink="http://www.w3.org/1999/xlink">
    <title>验证码</title>
    <defs>
        <polygon id="path-1" points="0 0 14 0 14 14 0 14"></polygon>
    </defs>
    <g id="页面-1" stroke="none" stroke-width="1" fill="none" fill-rule="evenodd" opacity="0.7">
        <g id="0-2登录-手机号登录-白底半透明" transform="translate(-777.000000, -660.000000)">
            <g id="编组-5" transform="translate(760.000000, 577.000000)">
                <g id="input" transform="translate(0.000000, 68.000000)">
                    <g id="验证码" transform="translate(16.000000, 15.000000)">
                        <mask id="mask-2" fill="white">
                            <use xlink:href="#path-1"></use>
                        </mask>
                        <g id="Clip-2"></g>
                        <path d="M11,0 C12.1045695,0 13,0.8954305 13,2 L13,12 C13,13.1045695 12.1045695,14 11,14 L3,14 C1.8954305,14 1,13.1045695 1,12 L1,2 C1,0.8954305 1.8954305,0 3,0 L11,0 Z M11.7,10.691 L2.299,10.691 L2.3,12 C2.3,12.3543827 2.56334362,12.6472582 2.90501415,12.6936098 L3,12.7 L11,12.7 C11.3543827,12.7 11.6472582,12.4366564 11.6936098,12.0949859 L11.7,12 L11.7,10.691 Z M11,1.3 L3,1.3 C2.64561729,1.3 2.35274177,1.56334362 2.30639017,1.90501415 L2.3,2 L2.299,9.391 L11.7,9.391 L11.7,2 C11.7,1.64561729 11.4366564,1.35274177 11.0949859,1.30639017 L11,1.3 Z M9.83987197,3.58418762 C10.0657743,3.81517044 10.0846579,4.17160947 9.8990795,4.42356836 L9.82965088,4.50336961 L7.0201447,7.28794861 C6.7937435,7.50937012 6.44576316,7.53247106 6.19399222,7.35660959 L6.11393064,7.29061924 L4.71973782,5.92208517 C4.4616153,5.67259959 4.45461368,5.26110192 4.70409926,5.00297939 C4.92863628,4.77066912 5.2844031,4.74176678 5.54148242,4.9201844 L5.62320504,4.98734083 L6.56290415,5.91635255 L8.92068998,3.57396654 C9.17733755,3.32296391 9.58886934,3.32754005 9.83987197,3.58418762 Z" id="形状结合" fill="#FFFFFF" mask="url(#mask-2)"></path>
                    </g>
                </g>
            </g>
        </g>
    </g>
</svg>