<?xml version="1.0" encoding="UTF-8"?>
<svg width="14px" height="14px" viewBox="0 0 14 14" version="1.1" xmlns="http://www.w3.org/2000/svg" xmlns:xlink="http://www.w3.org/1999/xlink">
    <title>账号</title>
    <defs>
        <polygon id="path-1" points="0 0 14 0 14 14 0 14"></polygon>
    </defs>
    <g id="页面-1" stroke="none" stroke-width="1" fill="none" fill-rule="evenodd" opacity="0.7">
        <g id="0-1登录-账号登录-白底半透明" transform="translate(-776.000000, -592.000000)">
            <g id="登录" transform="translate(-1.192675, 0.000000)">
                <g id="编组-5" transform="translate(761.192675, 577.000000)">
                    <g id="账号" transform="translate(16.000000, 15.000000)">
                        <mask id="mask-2" fill="white">
                            <use xlink:href="#path-1"></use>
                        </mask>
                        <g id="Clip-2"></g>
                        <path d="M11,8 C12.6568542,8 14,9.34314575 14,11 L14,13 C14,13.5522847 13.5522847,14 13,14 L1,14 C0.44771525,14 0,13.5522847 0,13 L0,11 C0,9.34314575 1.34314575,8 3,8 L11,8 Z M11,9.3 L3,9.3 C2.11053088,9.3 1.3806099,9.98310681 1.30624001,10.8533175 L1.3,11 L1.3,12.7 L12.7,12.7 L12.7,11 C12.7,10.1105309 12.0168932,9.3806099 11.1466825,9.30624001 L11,9.3 Z M7,0 C8.93299662,0 10.5,1.56700338 10.5,3.5 C10.5,5.43299662 8.93299662,7 7,7 C5.06700338,7 3.5,5.43299662 3.5,3.5 C3.5,1.56700338 5.06700338,0 7,0 Z M7,1.3 C5.78497355,1.3 4.8,2.28497355 4.8,3.5 C4.8,4.71502645 5.78497355,5.7 7,5.7 C8.21502645,5.7 9.2,4.71502645 9.2,3.5 C9.2,2.28497355 8.21502645,1.3 7,1.3 Z" id="形状结合" fill="#FFFFFF" mask="url(#mask-2)"></path>
                    </g>
                </g>
            </g>
        </g>
    </g>
</svg>